<svg xmlns="http://www.w3.org/2000/svg" xmlns:xlink="http://www.w3.org/1999/xlink" width="172.224" height="40" viewBox="0 0 172.224 40">
  <defs>
    <linearGradient id="linear-gradient" x2="1" y2="1" gradientUnits="objectBoundingBox">
      <stop offset="0" stop-color="#00d8c4"/>
      <stop offset="1" stop-color="#4c53bc"/>
    </linearGradient>
    <linearGradient id="linear-gradient-2" x2="1" y2="1" gradientUnits="objectBoundingBox">
      <stop offset="0" stop-color="#35d4c0"/>
      <stop offset="1" stop-color="#3f36c4"/>
    </linearGradient>
    <clipPath id="clip-path">
      <ellipse id="Ellipse_3" data-name="Ellipse 3" cx="20.12" cy="20" rx="20.12" ry="20" fill="url(#linear-gradient)"/>
    </clipPath>
  </defs>
  <g id="Logo" transform="translate(-1141.369 -390.906)">
    <g id="Group_41" data-name="Group 41" transform="translate(1195.544 397.059)">
      <g id="Group_139" data-name="Group 139">
        <path id="Path_121" data-name="Path 121" d="M1291.5,412.672c0-1.581.388-1.966,1.976-1.966h.635c1.588,0,1.975.386,1.975,1.966v16.292c0,1.791.459,2.352,1.552,2.352h.177c.952,0,1.2.246,1.2,1.616v.666c0,1.4-.247,1.791-1.2,1.966a7.435,7.435,0,0,1-1.058.071c-3.21,0-5.257-1.826-5.257-5.654Z" transform="translate(-1291.498 -409.714)" fill="#00040e"/>
        <path id="Path_122" data-name="Path 122" d="M1331.056,441.745c0,3.793-2.329,5.653-7.655,5.653s-7.656-1.86-7.656-5.548c0-3.651,2.4-5.477,7.161-5.477h3.563v-1.335c0-1.686-1.235-2.142-3.669-2.142a23.35,23.35,0,0,0-3.07.211c-1.552.245-1.976-.106-1.976-1.65v-.14c0-1.51.388-1.9,1.905-2.142a24.074,24.074,0,0,1,2.858-.176c5.539,0,8.537,1.686,8.537,6.04Zm-4.586-1.931h-3.634c-1.658,0-2.505.632-2.505,1.931.141,1.686,1.271,1.861,3,1.826,1.8.034,2.964-.176,3.14-2.072Z" transform="translate(-1306.995 -421.406)" fill="#00040e"/>
        <path id="Path_123" data-name="Path 123" d="M1366.78,412.672c0-1.581.388-1.966,1.976-1.966h.635c1.588,0,1.976.386,1.976,1.966v6.637c.988-1.335,2.611-2,4.834-2,4.833,0,7.408,2.844,7.408,7.9v2.81c0,5.126-2.822,7.689-8.432,7.689-5.045,0-8.4-2.457-8.4-7.689Zm12.207,12.43c0-2.423-.777-3.477-3.775-3.477s-3.846,1.053-3.846,3.477v2.809c0,2.423.847,3.477,3.846,3.477,3.069,0,3.775-.983,3.775-3.477Z" transform="translate(-1339.613 -409.714)" fill="#00040e"/>
        <path id="Path_124" data-name="Path 124" d="M1422.522,408.773a2.713,2.713,0,0,1,3.88,0,2.682,2.682,0,0,1,0,3.862,2.713,2.713,0,0,1-3.88,0A2.683,2.683,0,0,1,1422.522,408.773Zm-.353,9.165c0-1.58.388-1.967,1.976-1.967h.635c1.588,0,1.976.387,1.976,1.967v13.624c0,1.581-.388,1.966-1.976,1.966h-.635c-1.588,0-1.976-.386-1.976-1.966Z" transform="translate(-1374.717 -407.957)" fill="#00040e"/>
        <path id="Path_125" data-name="Path 125" d="M1446.265,412.672c0-1.581.388-1.966,1.976-1.966h.635c1.588,0,1.976.386,1.976,1.966v6.637c.988-1.335,2.61-2,4.833-2,4.833,0,7.408,2.844,7.408,7.9v2.81c0,5.126-2.822,7.689-8.432,7.689-5.044,0-8.4-2.457-8.4-7.689Zm12.206,12.43c0-2.423-.776-3.477-3.775-3.477s-3.846,1.053-3.846,3.477v2.809c0,2.423.847,3.477,3.846,3.477,3.069,0,3.775-.983,3.775-3.477Z" transform="translate(-1390.416 -409.714)" fill="#00040e"/>
        <path id="Path_126" data-name="Path 126" d="M1514.371,441.745c0,3.793-2.328,5.653-7.655,5.653s-7.656-1.86-7.656-5.548c0-3.651,2.4-5.477,7.162-5.477h3.563v-1.335c0-1.686-1.235-2.142-3.669-2.142a23.348,23.348,0,0,0-3.069.211c-1.553.245-1.976-.106-1.976-1.65v-.14c0-1.51.388-1.9,1.9-2.142a24.074,24.074,0,0,1,2.858-.176c5.539,0,8.537,1.686,8.537,6.04Zm-4.586-1.931h-3.634c-1.658,0-2.5.632-2.5,1.931.141,1.686,1.27,1.861,3,1.826,1.8.034,2.964-.176,3.14-2.072Z" transform="translate(-1424.159 -421.406)" fill="#00040e"/>
      </g>
      <path id="Path_127" data-name="Path 127" d="M1552.755,474.61a.988.988,0,1,1-1.975,0A.988.988,0,0,1,1552.755,474.61Z" transform="translate(-1457.215 -449.952)" fill="#00040e"/>
      <path id="Path_128" data-name="Path 128" d="M1579.221,442.963c0,4.073-2.117,5.442-7.056,5.442-2.293,0-5.645-.983-5.645-4.915,0-3.477,2.152-4.845,7.267-4.845h4.728v-2.88c0-3.09-1.976-4.249-5.539-4.249a16.945,16.945,0,0,0-4.621.6c-.247.071-.353,0-.353-.21v-.247a.308.308,0,0,1,.283-.316,20.9,20.9,0,0,1,4.691-.491c4.163,0,6.244,1.651,6.244,4.916Zm-.705-3.652h-4.586c-4.657,0-6.7,1.018-6.7,4.214,0,2.914,2.117,4.143,4.939,4.143,2.293,0,3.916-.316,4.868-.983q1.482-1,1.482-3.688Z" transform="translate(-1467.276 -422.588)" fill="#00040e"/>
      <path id="Path_129" data-name="Path 129" d="M1614.915,414.814c0-.456.212-.7.67-.7s.671.245.671.7-.212.7-.671.7S1614.915,415.27,1614.915,414.814Zm.317,5.864a.259.259,0,0,1,.282-.281h.141a.259.259,0,0,1,.282.281v16.5a.259.259,0,0,1-.282.281h-.141a.259.259,0,0,1-.282-.281Z" transform="translate(-1498.207 -411.891)" fill="#00040e"/>
    </g>
    <g id="Group_42" data-name="Group 42" transform="translate(1141.369 390.906)">
      <ellipse id="Ellipse_2" data-name="Ellipse 2" cx="20.12" cy="20" rx="20.12" ry="20" fill="url(#linear-gradient-2)"/>
      <g id="Mask_Group_1" data-name="Mask Group 1" clip-path="url(#clip-path)">
        <path id="Path_546" data-name="Path 546" d="M0,0,13.357,10.846,26.83,0V27.032H0Z" transform="translate(10.553 29.609) rotate(-45)" fill="rgba(0,0,0,0.2)"/>
      </g>
      <path id="Path_130" data-name="Path 130" d="M1186.362,419.342a13.4,13.4,0,1,0-12.994,16.667v1.666a.839.839,0,0,0,1.342.667l6.447-4.808.495-.367a13.327,13.327,0,0,0,4.711-13.825Zm-12.994,10.833a7.53,7.53,0,0,1-7.545-7.5.838.838,0,0,1,1.676,0,5.869,5.869,0,0,0,11.737,0,.838.838,0,0,1,1.676,0A7.53,7.53,0,0,1,1173.368,430.175Z" transform="translate(-1153.248 -402.689)" fill="#fff"/>
    </g>
  </g>
</svg>
