<svg xmlns="http://www.w3.org/2000/svg" xmlns:xlink="http://www.w3.org/1999/xlink" width="90" height="90" viewBox="0 0 90 90">
  <defs>
    <linearGradient id="linear-gradient" x1="0.5" x2="0.5" y2="1" gradientUnits="objectBoundingBox">
      <stop offset="0" stop-color="#6094ea"/>
      <stop offset="1" stop-color="#072138"/>
    </linearGradient>
  </defs>
  <g id="chatbots-icon" transform="translate(-530 -2535)">
    <rect id="Bg" width="90" height="90" rx="45" transform="translate(530 2535)" fill="rgba(96,148,234,0.16)"/>
    <g id="Group_1444" data-name="Group 1444" transform="translate(550.667 2556.91)">
      <path id="Union_16" data-name="Union 16" d="M31.095,31.109q-8.4-.008-16.8-.005a.017.017,0,0,1,0,0l-2.061,0H9.442l-1.473,0c-.031-.018-.06-.043-.091-.062a8.237,8.237,0,0,1-3.069-1.021A8.418,8.418,0,0,1,2.97,28.7,9.094,9.094,0,0,1,.262,23.965a1.084,1.084,0,0,1-.023-.139c-.045-.19-.086-.381-.128-.572h0c0-.1-.006-.2-.009-.305q-.1-3.69-.1-7.38v-.028Q0,11.78.107,8.018c0-.054,0-.108,0-.162h0C.153,7.664.2,7.473.24,7.282a1.072,1.072,0,0,1,.022-.137A9.094,9.094,0,0,1,2.97,2.406,8.419,8.419,0,0,1,4.8,1.089,8.23,8.23,0,0,1,7.878.063c.03-.019.06-.044.09-.063L9.536.006h2.886L14.29,0v0q8.4,0,16.8-.006A6.976,6.976,0,0,1,32.5.135,9.072,9.072,0,0,1,38.949,5.19a8.622,8.622,0,0,1,.789,2.564v.006l0,.172q.236,7.709,0,15.42v.006a8.609,8.609,0,0,1-.776,2.535q-.135.289-.287.565l-.009.016h0a9.072,9.072,0,0,1-6.164,4.5,6.8,6.8,0,0,1-1.387.135Z" transform="translate(4.111 15.071)" stroke="rgba(0,0,0,0)" stroke-miterlimit="10" stroke-width="1" fill="url(#linear-gradient)"/>
      <path id="Subtraction_4" data-name="Subtraction 4" d="M20.881,18.767h0l-.008,0-.019-.006c-2.171,0-4.29.008-6.3.008-3.282,0-6.177,0-8.851-.014a5.674,5.674,0,0,1-4.052-1.667A5.753,5.753,0,0,1,0,13.013c0-1.185,0-2.373,0-3.63s0-2.445,0-3.63A5.754,5.754,0,0,1,1.653,1.68,5.672,5.672,0,0,1,5.706.012C8.562,0,11.453,0,14.3,0c2.116,0,4.321,0,6.556.007l.014,0,.013,0h.365c.7,0,1.423,0,2.135.009.111,0,.231,0,.367.012a5.6,5.6,0,0,1,5.3,5.619c.008,1.2.011,2.456.011,3.739s0,2.542-.011,3.742a5.594,5.594,0,0,1-5.3,5.618c-.127.009-.248.014-.369.014l-1.2.006h-.419Zm-.236-12.2h-.081a1.135,1.135,0,0,0-1.111,1.168c0,.018,0,.037,0,.055v.027c0,.014,0,.028,0,.043-.011.354-.009.712-.006,1.057v.093q0,.184,0,.368,0,.235,0,.47c0,.326,0,.664,0,1q0,.04,0,.078v.042a1.521,1.521,0,0,0,.315.863,1.137,1.137,0,0,0,.834.406H20.6l.067,0a1.094,1.094,0,0,0,.8-.341l.024-.023a1.305,1.305,0,0,0,.306-.614c0-.026.011-.061.016-.1a1.689,1.689,0,0,0,.017-.176c.019-.42.03-.841.035-1.25,0-.111,0-.221,0-.332V9.355q0-.118,0-.237c0-.423-.015-.846-.033-1.256,0-.034,0-.068,0-.1a1.771,1.771,0,0,0-.026-.233c0-.008,0-.017-.005-.024a1.182,1.182,0,0,0-.3-.615.255.255,0,0,0-.018-.019A1.159,1.159,0,0,0,20.645,6.569Zm-12.218,0a1.425,1.425,0,0,0-.248.023H8.174l-.009,0H8.158a1.125,1.125,0,0,0-.9,1.2c-.008.981-.008,2.021,0,3.182a1.313,1.313,0,0,0,.362.928l0,0a1.148,1.148,0,0,0,.792.328h.024a1.1,1.1,0,0,0,.776-.306l.006-.005.012-.011.013-.013,0,0,0,0,.011-.012.006-.006a1.231,1.231,0,0,0,.235-.375l0-.009.008-.02,0-.006,0,0,.007-.018a1.52,1.52,0,0,0,.084-.487c0-.128,0-.269,0-.431V10.5c0-.02,0-.04,0-.059v-.066c0-.1,0-.207,0-.31V9.911q0-.26,0-.519V9.36c0-.174,0-.35,0-.523,0-.051,0-.1,0-.153,0-.085,0-.169,0-.254,0-.248,0-.462-.005-.654a1.235,1.235,0,0,0-.369-.917l-.011-.01-.011-.01,0,0,0,0L9.2,6.822l-.006,0,0,0-.011-.009-.006,0-.006,0,0,0,0,0,0,0,0,0,0,0,0,0,0,0,0,0-.006,0,0,0,0,0,0,0-.007,0-.008,0-.008,0,0,0,0,0,0,0,0,0-.005,0-.017-.01,0,0,0,0-.008,0-.008,0,0,0,0,0L9.01,6.7l0,0,0,0,0,0-.007,0-.007,0L8.973,6.68l0,0-.007,0-.009,0-.009,0h0l0,0a1.323,1.323,0,0,0-.51-.1Z" transform="translate(9.517 21.245)" fill="#6094ea"/>
      <g id="Union_47" data-name="Union 47" transform="translate(9.517 21.246)" fill="none" stroke-miterlimit="10">
        <path d="M5.707,18.754A5.665,5.665,0,0,1,0,13.013c0-.014,0-.028,0-.041q0-1.79,0-3.581s0-.005,0-.008,0-.005,0-.008Q0,7.585,0,5.794c0-.014,0-.028,0-.041A5.665,5.665,0,0,1,5.707.012Q13.28-.009,20.852.007L20.88,0l2.5.011c.081,0,.161,0,.241.006a5.61,5.61,0,0,1,5.431,5.625q.011,1.871.011,3.741t-.011,3.741a5.61,5.61,0,0,1-5.43,5.625q-.12.005-.241.006l-2.5.011-.028-.007q-3.271.007-6.541.007Q10.01,18.766,5.707,18.754Z" stroke="none"/>
        <path d="M 14.31173801422119 17.76590728759766 C 16.4543285369873 17.76590728759766 18.65425872802734 17.76368713378906 20.85042762756348 17.75931739807129 L 20.98311805725098 17.75905609130859 L 21.00611114501953 17.76521873474121 C 21.3795223236084 17.76332473754883 21.75290489196777 17.76191139221191 22.12631797790527 17.76050758361816 C 22.54247856140137 17.75892639160156 22.95863723754883 17.75735664367676 23.3745174407959 17.75511741638184 C 23.4411678314209 17.75473785400391 23.50893783569336 17.75299644470215 23.57593727111816 17.74993705749512 L 23.58316802978516 17.74963760375977 C 24.79990768432617 17.70295715332031 25.92592811584473 17.20550727844238 26.75380706787109 16.34891700744629 C 27.58324813842773 15.4907169342041 28.04429817199707 14.34310722351074 28.05201721191406 13.11799716949463 C 28.0591983795166 11.87875747680664 28.06282806396484 10.6221170425415 28.06279754638672 9.382926940917969 C 28.06282806396484 8.143787384033203 28.0591983795166 6.887146949768066 28.05201721191406 5.648396968841553 C 28.04429817199707 4.422817230224609 27.58320808410645 3.275207042694092 26.75369834899902 2.41698694229126 C 25.92574691772461 1.560387015342712 24.7996883392334 1.062916994094849 23.58292770385742 1.016237020492554 L 23.57584762573242 1.015946984291077 C 23.50882720947266 1.01289701461792 23.44108772277832 1.011157035827637 23.37479782104492 1.010787010192871 C 22.81967735290527 1.007786989212036 22.26455879211426 1.005586981773376 21.70943832397461 1.003386974334717 L 21.00680541992188 1.000521779060364 L 20.98326873779297 1.006837010383606 L 20.85043716430664 1.006577014923096 C 18.6627082824707 1.002217054367065 16.45935821533203 1.000007033348083 14.30156803131104 1.000007033348083 C 11.42674827575684 1.000007033348083 8.536007881164551 1.003937005996704 5.709417819976807 1.011697053909302 C 4.425907611846924 1.01492702960968 3.23787784576416 1.502277016639709 2.364167928695679 2.383956909179688 C 1.490267872810364 3.265836954116821 1.00738787651062 4.463047027587891 1.004497885704041 5.754977226257324 L 1.004417896270752 5.796657085418701 C 1.001447796821594 6.948846817016602 1.00000786781311 8.152807235717773 1.000117897987366 9.375197410583496 L 1.000117897987366 9.390787124633789 C 1.00000786781311 10.61308670043945 1.001447796821594 11.81705665588379 1.004417896270752 12.96962738037109 L 1.004497885704041 13.01085662841797 C 1.00738787651062 14.30284690856934 1.490267872810364 15.50005722045898 2.364167928695679 16.38193702697754 C 3.23787784576416 17.26361656188965 4.425907611846924 17.75096702575684 5.709647655487061 17.75419616699219 C 8.536857604980469 17.76196670532227 11.43101787567139 17.76590728759766 14.31173801422119 17.76590728759766 M 14.31173801422119 18.76590728759766 C 11.44374752044678 18.76590728759766 8.574987411499023 18.76207733154297 5.706897735595703 18.75419616699219 C 2.494797945022583 18.74609756469727 0.01169784646481276 16.22699737548828 0.004497846588492393 13.01309680938721 C 0.00446784682571888 12.99937725067139 0.004447846673429012 12.98553657531738 0.004417846910655499 12.97181701660156 C 0.001347846700809896 11.77830696105957 7.846680091461167e-06 10.58442687988281 0.0001178466773126274 9.390697479248047 C 0.0001178466773126274 9.388187408447266 0.0001178466773126274 9.385457038879395 0.0001178466773126274 9.382946968078613 C 0.0001178466773126274 9.380436897277832 0.0001178466773126274 9.377706527709961 0.0001178466773126274 9.375197410583496 C 7.846680091461167e-06 8.181476593017578 0.001347846700809896 6.987596988677979 0.004417846910655499 5.794086933135986 C 0.004447846673429012 5.780356884002686 0.00446784682571888 5.76652717590332 0.004497846588492393 5.75279712677002 C 0.01169784646481276 2.538897037506104 2.494797945022583 0.01979700289666653 5.706897735595703 0.01169700268656015 C 10.75558853149414 -0.00216299737803638 15.80430698394775 -0.003472997341305017 20.8524284362793 0.006577002815902233 C 20.86144828796387 0.00415700301527977 20.87059783935547 0.001897002919577062 20.87999725341797 -2.997131332449499e-06 C 21.71339797973633 0.003597002942115068 22.54679870605469 0.006297003012150526 23.38019752502441 0.01079700328409672 C 23.4609375 0.01125700306147337 23.54143714904785 0.01334700267761946 23.62126731872559 0.01697700284421444 C 26.67021751403809 0.1339469999074936 29.03264808654785 2.57172703742981 29.05199813842773 5.642096996307373 C 29.05922698974609 6.889107227325439 29.06282806396484 8.135947227478027 29.06279754638672 9.382946968078613 C 29.06282806396484 10.62995719909668 29.05922698974609 11.87679672241211 29.05199813842773 13.12379741668701 C 29.03264808654785 16.19417762756348 26.67046737670898 18.63192749023438 23.62150764465332 18.74889755249023 C 23.5414981842041 18.7525463104248 23.46112823486328 18.75463676452637 23.38019752502441 18.75509643554688 C 22.54679870605469 18.75959777832031 21.71339797973633 18.76139640808105 20.87999725341797 18.76589775085449 C 20.87057876586914 18.76399612426758 20.86144828796387 18.76173782348633 20.8524169921875 18.75931739807129 C 18.67206764221191 18.76365661621094 16.49224853515625 18.76590728759766 14.31173801422119 18.76590728759766 Z" stroke="none" fill="rgba(255,255,255,0.4)"/>
      </g>
      <path id="Path_820" data-name="Path 820" d="M64.877,49.372q.243-7.8,0-15.591a5.34,5.34,0,0,1,4.8,5.077c.014,1.846.022,3.692,0,5.537a5.34,5.34,0,0,1-4.8,4.976" transform="translate(-21.026 -10.949)" fill="#6094ea"/>
      <path id="Path_821" data-name="Path 821" d="M4.223,33.925q-.223,7.7,0,15.4A5.36,5.36,0,0,1,.1,45.163a11.994,11.994,0,0,1-.089-2.145q-.018-2.055,0-4.112a5.326,5.326,0,0,1,4.215-4.982" transform="translate(0 -10.995)" fill="#6094ea"/>
      <path id="Path_822" data-name="Path 822" d="M17.891,16.047l.86.113a5.934,5.934,0,0,0,1.475-.1q0,2.111.005,4.222l-2.358-.008q.009-2.114.018-4.227" transform="translate(-5.793 -5.201)" fill="#6094ea"/>
      <path id="Path_823" data-name="Path 823" d="M21.3,8.658a3.415,3.415,0,1,0-6.435,2.263,3.665,3.665,0,0,0,1.97,1.944l.86.113a4.947,4.947,0,0,0,.533-.214,4.811,4.811,0,0,1-.533.214,5.866,5.866,0,0,0,1.475-.1c.087-.045.172-.092.26-.136A3.441,3.441,0,0,0,21.3,8.658m-2.346,3.669c-.062.047-.125.091-.189.133.064-.043.128-.087.189-.133" transform="translate(-4.739 -2.019)" fill="#6094ea"/>
      <path id="Path_825" data-name="Path 825" d="M57.478,4.417a3.311,3.311,0,0,0-.055-.68A4.585,4.585,0,0,0,52.283.016c-.62,0-1.24,0-1.859,0C44.3.012,38.173.031,32.048,0a4.6,4.6,0,0,0-4.815,4.784c.082,1.957.02,3.92.016,5.879,0,1.469-.016,2.939-.024,4.408a1.056,1.056,0,0,1,.03.193,4.45,4.45,0,0,0,3.8,4.362,20.025,20.025,0,0,0,2.587.055c.3,0,.447.07.423.406-.028.389-.011.781-.014,1.173.014.046.028.091.042.137.1.875.017,1.756.045,2.641-.028-.885.051-1.765-.045-2.641-.012,1.106-.033,2.214-.029,3.321a.716.716,0,0,0,.421.716c.346.145.544-.1.752-.312Q37,23.362,38.765,21.6c.137-.135.245-.312.455-.354l1.386-1.465a1.307,1.307,0,0,1,.324-.084q5.335,0,10.671.014l.391-.034c.375.005.751.016,1.127.015a4.456,4.456,0,0,0,4.36-4.39q.005-5.442,0-10.885" transform="translate(-8.823 -0.001)" fill="#6094ea"/>
      <path id="Path_4061" data-name="Path 4061" d="M57.478,4.417a3.311,3.311,0,0,0-.055-.68A4.585,4.585,0,0,0,52.283.016c-.62,0-1.24,0-1.859,0C44.3.012,38.173.031,32.048,0a4.6,4.6,0,0,0-4.815,4.784c.082,1.957.02,3.92.016,5.879,0,1.469-.016,2.939-.024,4.408a1.056,1.056,0,0,1,.03.193,4.45,4.45,0,0,0,3.8,4.362,20.025,20.025,0,0,0,2.587.055c.3,0,.447.07.423.406-.028.389-.011.781-.014,1.173.014.046.028.091.042.137.1.875.017,1.756.045,2.641-.028-.885.051-1.765-.045-2.641-.012,1.106-.033,2.214-.029,3.321a.716.716,0,0,0,.421.716c.346.145.544-.1.752-.312Q37,23.362,38.765,21.6c.137-.135.245-.312.455-.354l1.386-1.465a1.307,1.307,0,0,1,.324-.084q5.335,0,10.671.014l.391-.034c.375.005.751.016,1.127.015a4.456,4.456,0,0,0,4.36-4.39q.005-5.442,0-10.885" transform="translate(-8.823 -0.001)" fill="none" stroke="rgba(255,255,255,0.4)" stroke-width="1"/>
      <path id="Path_826" data-name="Path 826" d="M44.924,21.168c-2.779,0-5.557,0-8.336,0a1.177,1.177,0,0,1-1.219-1.6,1.11,1.11,0,0,1,1.1-.75c.9,0,1.8,0,2.7,0q7.06,0,14.121-.005a1.234,1.234,0,0,1,1.277.714,1.177,1.177,0,0,1-1.2,1.642c-1.667.012-3.334,0-5,0H44.924" transform="translate(-11.434 -6.096)" fill="#c4d1fe"/>
      <path id="Path_827" data-name="Path 827" d="M44.952,15.214c-2.778,0-5.557,0-8.335,0a1.18,1.18,0,0,1-1.258-1.571,1.1,1.1,0,0,1,1.029-.773c.147-.01.294-.008.441-.008H53.108c.164,0,.328,0,.49.011a1.163,1.163,0,0,1,.268,2.264,1.98,1.98,0,0,1-.677.08H44.952" transform="translate(-11.434 -4.168)" fill="#c4d1fe"/>
      <path id="Path_828" data-name="Path 828" d="M42.372,6.911q2.866,0,5.732,0a1.2,1.2,0,0,1,1.35,1.16,1.212,1.212,0,0,1-1.338,1.191q-5.757.008-11.514,0A1.224,1.224,0,0,1,35.29,8.253a1.194,1.194,0,0,1,.724-1.261,1.653,1.653,0,0,1,.675-.08q2.842,0,5.684,0" transform="translate(-11.432 -2.24)" fill="#c4d1fe"/>
    </g>
  </g>
</svg>
