<svg xmlns="http://www.w3.org/2000/svg" xmlns:xlink="http://www.w3.org/1999/xlink" width="90" height="90" viewBox="0 0 90 90">
  <defs>
    <linearGradient id="linear-gradient" x1="0.5" x2="0.5" y2="1" gradientUnits="objectBoundingBox">
      <stop offset="0" stop-color="#6094ea"/>
      <stop offset="1" stop-color="#072138"/>
    </linearGradient>
  </defs>
  <g id="ivr-icon" transform="translate(-1385 -4292)">
    <rect id="Bg" width="90" height="90" rx="45" transform="translate(1385 4292)" fill="rgba(96,148,234,0.16)"/>
    <g id="Group_1448" data-name="Group 1448" transform="translate(1405.883 4312.833)">
      <path id="Path_868" data-name="Path 868" d="M24.4,25.91c-.844-1.785-1.646-3.591-2.548-5.347a8.227,8.227,0,0,1-.843-3.792A17.524,17.524,0,0,0,19.751,12.1,13.837,13.837,0,0,0,18,8.856,10.311,10.311,0,0,0,16.572,6.9,18.839,18.839,0,0,0,10.96,2.369,18.069,18.069,0,0,0,3.382.189C3.245.182,3.13.166,3.112,0H2.83A2.95,2.95,0,0,1,1.545.087,1.488,1.488,0,0,0,.006,1.623C0,3.846,0,6.069,0,8.291q0,4.193,0,8.386,0,4.334,0,8.668,0,5.088,0,10.176Q.005,41.2,0,46.869a1.552,1.552,0,0,0,1.04,1.464H9.8a1.638,1.638,0,0,0,1.045-1.794c-.041-.53.023-1.069-.017-1.6-.034-.456.119-.571.571-.575a40.5,40.5,0,0,0,4.6-.079,5.254,5.254,0,0,0,4.172-4.18c.128-.925.02-1.848.088-2.768a1.662,1.662,0,0,0-1.6-1.918h0c-.171-.185-.419-.2-.634-.281a11.852,11.852,0,0,1-1.716-.651.888.888,0,0,1,.14-.1c.9-.322,1.8-.646,2.7-.959A1.428,1.428,0,0,0,20.256,31.9c0-.251.017-.5,0-.753-.026-.32.077-.454.418-.436.469.026.941.009,1.412.005A3,3,0,0,0,24.8,28.74a3.33,3.33,0,0,0-.4-2.83" transform="translate(0)" fill="url(#linear-gradient)"/>
      <path id="Path_869" data-name="Path 869" d="M54.163,34.212A4.261,4.261,0,0,0,50.8,38.263c0,1.192,0,2.384,0,3.576,0,.675.007,1.349,0,2.025a4.228,4.228,0,0,0,5.076,4.284,4.055,4.055,0,0,0,3.237-3.036,13.7,13.7,0,0,0,.164-3.273q0-1.694,0-3.388a4.224,4.224,0,0,0-4.241-4.323,4.612,4.612,0,0,0-.874.084" transform="translate(-16.698 -11.218)" fill="url(#linear-gradient)"/>
      <path id="Path_870" data-name="Path 870" d="M62.084,44.9a1.42,1.42,0,0,0-2.757.633,15.356,15.356,0,0,1-.23,3.56l.424,0-.424,0a7.647,7.647,0,0,1-2.217,3.467,8.493,8.493,0,0,1-2.774,1.516,8.284,8.284,0,0,1-3.689,0,7.285,7.285,0,0,1-5.052-5.254c-.028-.2-.053-.4-.085-.6a23.048,23.048,0,0,1-.086-2.9,1.418,1.418,0,0,0-1.322-1.393A1.349,1.349,0,0,0,42.4,45.1a13.85,13.85,0,0,0,.128,3.732,9.146,9.146,0,0,0,2.877,5.485,4.216,4.216,0,0,0,.9.815,9.559,9.559,0,0,0,4.127,1.806c.324.054.44.181.42.518-.03.483,0,.97.007,1.455a5.356,5.356,0,0,0-.009.656c.034.32-.1.4-.4.385a10.159,10.159,0,0,0-1.079,0,1.406,1.406,0,0,0-.63,2.636c.1.061.208.124.312.185h6.406c.1-.063.207-.128.312-.189a1.339,1.339,0,0,0,.31-2.156,1.693,1.693,0,0,0-1.356-.489c-1.027.026-1.028.007-1.065-.981,0-.015,0-.032-.006-.047a12.708,12.708,0,0,0,0-1.4c-.042-.424.154-.514.508-.581a9.444,9.444,0,0,0,4.941-2.609,9.286,9.286,0,0,0,2.815-5.1c.139-.271.052-.6.225-.863V44.963c-.023-.019-.056-.034-.068-.059m-1.553,4.2c.159,0,.319,0,.478,0-.159,0-.319,0-.478,0" transform="translate(-13.918 -14.436)" fill="#6094ea"/>
      <path id="Path_867" data-name="Path 867" d="M58.835.122C53.515.149,48.2.135,42.876.135c-1.1,0-2.2-.009-3.3,0a1.413,1.413,0,0,0-1.4,1.366c-.013,1.208,0,2.417.008,3.625V9.18q0,1.319,0,2.638v2.544c0,.345-.013.69-.014,1.035a1.473,1.473,0,0,0,1.69,1.7c6.324,0,12.648-.011,18.972.013a1.837,1.837,0,0,0,1.946-1.05V1.171A1.833,1.833,0,0,0,58.835.122" transform="translate(-21.054 1.303)" fill="#6094ea"/>
      <path id="Path_871" data-name="Path 871" d="M58.283,7.3a1.505,1.505,0,0,1-1.586,2q-4.92-.075-9.841,0a1.5,1.5,0,0,1-1.578-2,1.719,1.719,0,0,1,1.686-.857q4.816.033,9.632,0a1.716,1.716,0,0,1,1.686.857" transform="translate(-23.357 -0.775)" fill="#c4d1fe"/>
      <path id="Path_872" data-name="Path 872" d="M45.194,16.666a1.607,1.607,0,0,1,.4-1.391,1.3,1.3,0,0,1,.92-.4q5.226,0,10.453,0a1.459,1.459,0,0,1,1.394,1.782,1.693,1.693,0,0,1-1.794,1.053q-4.866-.043-9.732,0a1.556,1.556,0,0,1-1.639-1.048" transform="translate(-23.358 -3.547)" fill="#c4d1fe"/>
      <path id="Path_4079" data-name="Path 4079" d="M58.835.122C53.515.149,48.2.135,42.876.135c-1.1,0-2.2-.009-3.3,0a1.413,1.413,0,0,0-1.4,1.366c-.013,1.208,0,2.417.008,3.625V9.18q0,1.319,0,2.638v2.544c0,.345-.013.69-.014,1.035a1.473,1.473,0,0,0,1.69,1.7c6.324,0,12.648-.011,18.972.013a1.837,1.837,0,0,0,1.946-1.05V1.171A1.833,1.833,0,0,0,58.835.122" transform="translate(-21.054 1.303)" fill="none" stroke="rgba(255,255,255,0.4)" stroke-width="1"/>
    </g>
  </g>
</svg>
