<svg xmlns="http://www.w3.org/2000/svg" xmlns:xlink="http://www.w3.org/1999/xlink" width="90" height="90" viewBox="0 0 90 90">
  <defs>
    <linearGradient id="linear-gradient" x1="0.5" y1="-0.177" x2="0.5" y2="1" gradientUnits="objectBoundingBox">
      <stop offset="0" stop-color="#6094ea"/>
      <stop offset="1" stop-color="#072138"/>
    </linearGradient>
  </defs>
  <g id="knowledge-icon" transform="translate(-1385 -4292)">
    <rect id="Bg" width="90" height="90" rx="45" transform="translate(1385 4292)" fill="rgba(96,148,234,0.16)"/>
    <g id="Group_1447" data-name="Group 1447" transform="translate(1408.906 4313)">
      <path id="Union_25" data-name="Union 25" d="M2.648,19.824h-1.6A1.469,1.469,0,0,1,0,18.343V18.3c0-.031,0-.063,0-.094.016-.353.024-.707.028-1.061v-3.73q0-1.752,0-3.5t0-3.5V2.679c0-.354-.013-.707-.028-1.061,0-.032,0-.064,0-.095v-.04A1.47,1.47,0,0,1,1.047,0h40.11c.569.252,1.026.589,1.028,1.206,0,.252,0,.505,0,.758,0,.485,0,.969,0,1.453q0,.814-.007,1.63v4.7q0,2.355,0,4.708,0,1.005.009,2.009c0,.466.008.931,0,1.4q0,.38,0,.758c0,.617-.459.953-1.028,1.205H36.995c-3.163,0-7.936,0-12.927,0C14.066,19.827,3.191,19.824,2.648,19.824Z" transform="translate(0 28.173)" stroke="rgba(0,0,0,0)" stroke-miterlimit="10" stroke-width="1" fill="url(#linear-gradient)"/>
      <g id="Group_498" data-name="Group 498" transform="translate(4.873 18.023)">
        <path id="Union_26" data-name="Union 26" d="M16.22,23.576h0a1.411,1.411,0,0,1-.273-.027h0a1.449,1.449,0,0,1-1.166-1.164,1.313,1.313,0,0,1-.025-.177,2.471,2.471,0,0,0-.161-.731,1.582,1.582,0,0,0-1.115-.814,2.893,2.893,0,0,0-.43-.03H10.9q-2.284.008-4.569,0c-1.492,0-2.984,0-4.476,0a2.174,2.174,0,0,1-1.423-.409h0l0,0A2.207,2.207,0,0,1,.2,19.837,1.292,1.292,0,0,1,.016,19.2v-.035a2.557,2.557,0,0,1-.007-.407c.006-.1.01-.2.013-.3,0-.489.005-.978.008-1.467Q.015,15.767,0,14.543V9.828c.01-.329.006-.421,0-.989,0-.676.005-1.374.005-2.072L0,6.39q0-.223,0-.445c0-.048,0-.1,0-.144L.007,4.588.012,2.96q0-.366,0-.73,0-.347,0-.694A1.656,1.656,0,0,1,.157.865,1.307,1.307,0,0,1,.84.164,1.674,1.674,0,0,1,1.566.006q4.732,0,9.462,0L13.054,0c.12,0,.239,0,.357.011a4.335,4.335,0,0,1,2.448.85.534.534,0,0,0,.724,0,4.326,4.326,0,0,1,2.449-.85C19.149,0,19.268,0,19.388,0l2.026.005q4.731-.007,9.462,0a1.678,1.678,0,0,1,.707.149A1.312,1.312,0,0,1,32.3.889a1.673,1.673,0,0,1,.131.647c0,.307,0,.614,0,.921q0,.251,0,.5,0,.41,0,.821l.009,2.02c0,.06,0,.119,0,.179q0,.205,0,.411c0,.111,0,.222,0,.333,0,.713.006,1.425.006,2.115-.006.568-.011.66,0,.989,0,.1,0,.191,0,.287a.038.038,0,0,1,0,.008v4.419q-.015,1.226-.031,2.453c0,.062,0,.123,0,.186q0,.641.007,1.282c0,.1.007.2.013.3a2.657,2.657,0,0,1-.007.409V19.2a1.287,1.287,0,0,1-.176.628,2.2,2.2,0,0,1-.232.394l0,.008a2.177,2.177,0,0,1-1.424.409l-.808,0q-1.9,0-3.8,0-2.134,0-4.267,0H19.4a2.9,2.9,0,0,0-.43.03,1.586,1.586,0,0,0-1.114.813,2.425,2.425,0,0,0-.162.734,1.531,1.531,0,0,1-.025.174,1.448,1.448,0,0,1-1.193,1.171,1.429,1.429,0,0,1-.251.022Z" transform="translate(0 0)" fill="#6094ea" stroke="rgba(0,0,0,0)" stroke-miterlimit="10" stroke-width="1"/>
        <g id="Union_27" data-name="Union 27" transform="translate(0 0)" fill="none" stroke-miterlimit="10">
          <path d="M16.22,23.576h0a1.411,1.411,0,0,1-.273-.027h0a1.449,1.449,0,0,1-1.166-1.164,1.313,1.313,0,0,1-.025-.177,2.471,2.471,0,0,0-.161-.731,1.582,1.582,0,0,0-1.115-.814,2.893,2.893,0,0,0-.43-.03H10.9q-2.284.008-4.569,0c-1.492,0-2.984,0-4.476,0a2.174,2.174,0,0,1-1.423-.409h0l0,0A2.207,2.207,0,0,1,.2,19.837,1.292,1.292,0,0,1,.016,19.2v-.035a2.557,2.557,0,0,1-.007-.407c.006-.1.01-.2.013-.3,0-.489.005-.978.008-1.467Q.015,15.767,0,14.543V9.828c.01-.329.006-.421,0-.989,0-.676.005-1.374.005-2.072L0,6.39q0-.223,0-.445c0-.048,0-.1,0-.144L.007,4.588.012,2.96q0-.366,0-.73,0-.347,0-.694A1.656,1.656,0,0,1,.157.865,1.307,1.307,0,0,1,.84.164,1.674,1.674,0,0,1,1.566.006q4.732,0,9.462,0L13.054,0c.12,0,.239,0,.357.011a4.335,4.335,0,0,1,2.448.85.534.534,0,0,0,.724,0,4.326,4.326,0,0,1,2.449-.85C19.149,0,19.268,0,19.388,0l2.026.005q4.731-.007,9.462,0a1.678,1.678,0,0,1,.707.149A1.312,1.312,0,0,1,32.3.889a1.673,1.673,0,0,1,.131.647c0,.307,0,.614,0,.921q0,.251,0,.5,0,.41,0,.821l.009,2.02c0,.06,0,.119,0,.179q0,.205,0,.411c0,.111,0,.222,0,.333,0,.713.006,1.425.006,2.115-.006.568-.011.66,0,.989,0,.1,0,.191,0,.287a.038.038,0,0,1,0,.008v4.419q-.015,1.226-.031,2.453c0,.062,0,.123,0,.186q0,.641.007,1.282c0,.1.007.2.013.3a2.657,2.657,0,0,1-.007.409V19.2a1.287,1.287,0,0,1-.176.628,2.2,2.2,0,0,1-.232.394l0,.008a2.177,2.177,0,0,1-1.424.409l-.808,0q-1.9,0-3.8,0-2.134,0-4.267,0H19.4a2.9,2.9,0,0,0-.43.03,1.586,1.586,0,0,0-1.114.813,2.425,2.425,0,0,0-.162.734,1.531,1.531,0,0,1-.025.174,1.448,1.448,0,0,1-1.193,1.171,1.429,1.429,0,0,1-.251.022Z" stroke="none"/>
          <path d="M 16.22177696228027 22.5755672454834 C 16.24626731872559 22.5755672454834 16.27169609069824 22.5732479095459 16.29979705810547 22.5682373046875 C 16.48872566223145 22.53499794006348 16.65448570251465 22.38908767700195 16.67715644836426 22.23605728149414 L 16.68686676025391 22.18109893798828 C 16.69071960449219 22.16235733032227 16.69360733032227 22.14249420166016 16.69545364379883 22.12205696105957 C 16.72805213928223 21.72892951965332 16.80502891540527 21.39105987548828 16.93072700500488 21.08927726745605 L 16.94571685791016 21.05328750610352 L 16.96346664428711 21.01856803894043 C 17.31242561340332 20.33601760864258 17.96810722351074 19.84896850585938 18.76237678527832 19.68231773376465 L 18.81918716430664 19.67209815979004 C 18.99903678894043 19.64508819580078 19.19379615783691 19.63138771057129 19.39803695678711 19.63138771057129 L 21.71621704101562 19.63106727600098 C 22.53957748413086 19.63369750976562 23.41960716247559 19.63492774963379 24.48574638366699 19.63492774963379 C 25.50472068786621 19.63492774963379 26.52349662780762 19.63362884521484 27.54222679138184 19.63362884521484 C 28.28910636901855 19.63362884521484 29.03619575500488 19.63421821594238 29.78518676757812 19.63595771789551 L 30.61520576477051 19.63861846923828 C 30.91830253601074 19.63861846923828 31.12471771240234 19.60117530822754 31.28836250305176 19.51262283325195 C 31.30690383911133 19.48030853271484 31.32390213012695 19.4471378326416 31.33957672119141 19.41273880004883 L 31.36588668823242 19.35928726196289 C 31.42289733886719 19.25167846679688 31.42545700073242 19.21681785583496 31.42538642883301 19.21091842651367 L 31.42532730102539 19.11747741699219 L 31.43014717102051 19.06856727600098 C 31.43781661987305 18.99070739746094 31.43912696838379 18.90499877929688 31.43425750732422 18.81762886047363 C 31.42864608764648 18.72354888916016 31.42425727844238 18.62432861328125 31.42001724243164 18.49591827392578 L 31.41934585571289 18.44605827331543 C 31.41678619384766 18.02581787109375 31.41423606872559 17.60587882995605 31.41230583190918 17.18137741088867 C 31.41230583190918 17.12274742126465 31.41167640686035 17.06441879272461 31.41106605529785 17.00640869140625 L 31.41094589233398 16.99515724182129 L 31.41107749938965 16.98391723632812 C 31.41600608825684 16.5703182220459 31.42143630981445 16.15712738037109 31.42685699462891 15.74418830871582 C 31.43215179443359 15.3414192199707 31.43744468688965 14.93887138366699 31.44225692749023 14.53641033172607 L 31.44161605834961 10.10780811309814 C 31.44222831726074 10.01998710632324 31.4422550201416 9.932436943054199 31.44225692749023 9.844639778137207 C 31.43340110778809 9.573984146118164 31.43502426147461 9.441909790039062 31.4388256072998 9.131628036499023 C 31.43984222412109 9.048618316650391 31.4410343170166 8.951367378234863 31.44225692749023 8.833290100097656 C 31.44224166870117 8.494142532348633 31.44080924987793 8.149563789367676 31.43936729431152 7.802237987518311 C 31.43788719177246 7.444618225097656 31.4363956451416 7.084108352661133 31.4363956451416 6.723608016967773 L 31.43654632568359 6.706098079681396 C 31.43841743469238 6.59950590133667 31.43967056274414 6.493240833282471 31.44091796875 6.386960983276367 C 31.44027137756348 6.251033306121826 31.43964576721191 6.115122318267822 31.43964576721191 5.979508399963379 C 31.43964576721191 5.918842792510986 31.44025421142578 5.858806610107422 31.44092178344727 5.797635078430176 L 31.42923736572266 2.96362829208374 C 31.42858695983887 2.794398069381714 31.42858695983887 2.625498056411743 31.42858695983887 2.456918239593506 C 31.42858695983887 2.152098178863525 31.42859649658203 1.846948146820068 31.42665672302246 1.544328212738037 C 31.42585563659668 1.446458220481873 31.40899658203125 1.35843813419342 31.37655639648438 1.282718181610107 L 31.36865615844727 1.263728141784668 C 31.32947731018066 1.166808128356934 31.27778625488281 1.113238215446472 31.18427658081055 1.072678208351135 L 31.16140747070312 1.062408208847046 C 31.08085632324219 1.025038123130798 30.98415565490723 1.006018161773682 30.87496566772461 1.005878210067749 C 28.78520774841309 1.005240201950073 26.69542121887207 1.003148317337036 24.60525703430176 1.003148198127747 C 23.54194641113281 1.003148198127747 22.47834587097168 1.003688216209412 21.41210746765137 1.005228161811829 C 20.73636627197266 1.004248142242432 20.06063652038574 1.00229811668396 19.38543701171875 1.000018119812012 L 19.37394714355469 0.999998152256012 C 19.28423690795898 0.999998152256012 19.18976593017578 1.002988219261169 19.09317588806152 1.008898138999939 L 19.0502758026123 1.010598182678223 C 18.4027271270752 1.022318124771118 17.76747703552246 1.246278166770935 17.16218566894531 1.676228165626526 L 17.15280723571777 1.682818174362183 C 16.84407615661621 1.896838188171387 16.5402774810791 2.001318216323853 16.22403717041016 2.002248287200928 L 16.21822738647461 2.002248287200928 C 15.90048694610596 2.001328229904175 15.59607696533203 1.896418213844299 15.2875862121582 1.681518197059631 L 15.28098678588867 1.676888227462769 C 14.67393684387207 1.246708154678345 14.03847694396973 1.022538185119629 13.39223670959473 1.0105881690979 L 13.35005664825439 1.008918166160583 C 13.25133609771729 1.002918124198914 13.15898609161377 0.999998152256012 13.06772613525391 0.999998152256012 L 13.05735683441162 1.000008225440979 C 12.38162612915039 1.00229811668396 11.70523643493652 1.004248142242432 11.02659702301025 1.005228161811829 C 8.724796295166016 1.001895308494568 6.423567771911621 1.003251194953918 4.121526718139648 1.004608154296875 C 3.269716501235962 1.005108118057251 2.417866468429565 1.005618214607239 1.566896557807922 1.005878210067749 C 1.455406546592712 1.006018161773682 1.353846549987793 1.026548147201538 1.273186564445496 1.065268158912659 L 1.252046585083008 1.075118184089661 C 1.165546536445618 1.11417818069458 1.115156531333923 1.165898203849792 1.07810652256012 1.253618121147156 L 1.06822657585144 1.276238203048706 C 1.034116506576538 1.351758122444153 1.016406536102295 1.441838145256042 1.01560652256012 1.541688203811646 C 1.014316558837891 1.770928144454956 1.013676524162292 2.000168085098267 1.013676524162292 2.232428073883057 C 1.013016581535339 2.47467827796936 1.012366533279419 2.716928243637085 1.012356519699097 2.963408231735229 L 1.001333475112915 5.796485900878906 C 1.001610994338989 5.819649219512939 1.001777768135071 5.842879772186279 1.001936554908752 5.866147994995117 L 1.002636551856995 5.94044828414917 L 1.002596497535706 5.949388027191162 C 1.001964569091797 6.094519138336182 1.001323223114014 6.239660263061523 1.001307368278503 6.384791374206543 L 1.00520658493042 6.766258239746094 C 1.00520658493042 7.119428157806396 1.003876566886902 7.472598075866699 1.002566576004028 7.822917938232422 C 1.001283884048462 8.163205146789551 1.000011324882507 8.500768661499023 0.9999969005584717 8.833012580871582 L 1.002766609191895 9.085807800292969 C 1.006667971611023 9.428730964660645 1.008174180984497 9.560761451721191 0.999996542930603 9.842595100402832 L 0.999996542930603 14.5364294052124 L 1.029326558113098 16.99253845214844 L 1.026976585388184 17.4886589050293 C 1.025516510009766 17.81574821472168 1.024066567420959 18.14313888549805 1.021456599235535 18.47052764892578 L 1.021136522293091 18.4890079498291 C 1.018376588821411 18.59349822998047 1.013646602630615 18.70098876953125 1.006636500358582 18.81865882873535 C 1.001496553421021 18.90334892272949 1.002896547317505 18.98679733276367 1.010786533355713 19.06670761108398 L 1.015626549720764 19.11573791503906 L 1.01556658744812 19.2107982635498 C 1.015534639358521 19.21358871459961 1.015936851501465 19.21924209594727 1.018370389938354 19.22912216186523 L 1.429016590118408 19.2293872833252 L 1.429016590118408 19.60713577270508 C 1.540872693061829 19.62874031066895 1.670901894569397 19.63862228393555 1.826366543769836 19.63861846923828 L 1.848406553268433 19.63855743408203 C 2.883956670761108 19.63471794128418 3.925246477127075 19.63418769836426 4.896266460418701 19.63418769836426 L 6.328906536102295 19.63431739807129 C 6.918206691741943 19.63469886779785 7.507336616516113 19.63507843017578 8.096596717834473 19.63507843017578 C 9.190886497497559 19.63507843017578 10.0796365737915 19.63369750976562 10.8976469039917 19.6307373046875 L 10.96263694763184 19.63076782226562 C 11.65689659118652 19.63107872009277 12.35054683685303 19.63138771057129 13.04421615600586 19.63138771057129 C 13.25089645385742 19.63138771057129 13.44002628326416 19.64470863342285 13.62241649627686 19.67209815979004 L 13.67868614196777 19.68220901489258 C 14.47493648529053 19.84881782531738 15.13139629364014 20.33718872070312 15.479736328125 21.02206802368164 L 15.49791622161865 21.05780792236328 L 15.51317691802979 21.09488868713379 C 15.6364164352417 21.3943977355957 15.71245670318604 21.73052787780762 15.74563694000244 22.12247848510742 L 15.74634647369385 22.13130760192871 C 15.74747657775879 22.14623832702637 15.74947643280029 22.16047859191895 15.75230693817139 22.17363739013672 L 15.76328659057617 22.2336483001709 C 15.78650665283203 22.38680839538574 15.94516658782959 22.52988815307617 16.13234710693359 22.56646728515625 L 16.14792060852051 22.56950569152832 C 16.17142295837402 22.57358169555664 16.19482421875 22.5755672454834 16.2204761505127 22.5755672454834 L 16.22177696228027 22.5755672454834 M 16.22177696228027 23.5755672454834 C 16.2204761505127 23.5755672454834 16.21980476379395 23.5755672454834 16.21852684020996 23.5755672454834 C 16.12542724609375 23.5755672454834 16.03428649902344 23.56644821166992 15.94509696960449 23.54887771606445 C 15.94379615783691 23.54854774475098 15.94184684753418 23.5482177734375 15.94054698944092 23.54789733886719 C 15.35593700408936 23.43364906311035 14.86377620697021 22.97175788879395 14.77458667755127 22.38356781005859 C 14.76221656799316 22.32595825195312 14.75375652313232 22.26703834533691 14.74919700622559 22.20681762695312 C 14.72511672973633 21.92233848571777 14.67238616943359 21.67950820922852 14.58840656280518 21.47541809082031 C 14.36705684661865 21.04021835327148 13.95301628112793 20.76126861572266 13.473876953125 20.66100883483887 C 13.34172630310059 20.64115905761719 13.19915676116943 20.63138771057129 13.04421615600586 20.63138771057129 C 12.32875633239746 20.63138771057129 11.61330699920654 20.63105773925781 10.89719676971436 20.6307373046875 C 9.374496459960938 20.63626670837402 7.851136207580566 20.63529777526855 6.327786445617676 20.63431739807129 C 4.835676670074463 20.63431739807129 3.343566656112671 20.63301849365234 1.852116584777832 20.63854789733887 C 1.323496460914612 20.64151763916016 0.848256528377533 20.55554962158203 0.4290165603160858 20.2293872833252 C 0.4290165603160858 20.22873115539551 0.4277165532112122 20.22808837890625 0.4277165532112122 20.22808837890625 C 0.4270565509796143 20.22678756713867 0.4264065623283386 20.22580909729004 0.4257565438747406 20.22483825683594 C 0.3339665532112122 20.09918785095215 0.2571465671062469 19.97028732299805 0.1966065615415573 19.837158203125 C 0.09179655462503433 19.64250755310059 0.01301655638962984 19.43776893615723 0.01562655717134476 19.1998291015625 C 0.01562655717134476 19.18810844421387 0.01562655717134476 19.17671775817871 0.01562655717134476 19.16499900817871 C 0.002606556285172701 19.03316879272461 -3.443603418418206e-06 18.89775848388672 0.008466556668281555 18.75811767578125 C 0.01432655658572912 18.65981864929199 0.01887655630707741 18.56118774414062 0.02148655615746975 18.46255874633789 C 0.02538655698299408 17.97332763671875 0.02669655717909336 17.48409843444824 0.02929655648767948 16.9958381652832 C 0.01952655613422394 16.17687797546387 0.009766556322574615 15.35953807830811 -3.443603418418206e-06 14.54252815246582 C -3.443603418418206e-06 12.97001838684082 -3.443603418418206e-06 11.39913845062256 -3.443603418418206e-06 9.827938079833984 C 0.009766556322574615 9.498528480529785 0.005856556352227926 9.407057762145996 -3.443603418418206e-06 8.838727951049805 C -3.443603418418206e-06 8.162657737731934 0.005206556525081396 7.464457988739014 0.005206556525081396 6.766258239746094 C 0.003906556405127048 6.640938282012939 0.002606556285172701 6.515288352966309 0.001306556398048997 6.390298366546631 C 0.001306556398048997 6.241868019104004 0.001956556458026171 6.093438148498535 0.002606556285172701 5.945008277893066 C 0.001956556458026171 5.896838188171387 0.001956556458026171 5.848658084869385 0.001306556398048997 5.800807952880859 L 0.006506556179374456 4.587988376617432 C 0.008466556668281555 4.045048236846924 0.01041655614972115 3.502438068389893 0.01236655656248331 2.959818124771118 C 0.01236655656248331 2.716018199920654 0.01301655638962984 2.472868204116821 0.01367655675858259 2.229718208312988 C 0.01367655675858259 1.998288154602051 0.01432655658572912 1.767178177833557 0.01562655717134476 1.536068201065063 C 0.01757655665278435 1.289988160133362 0.0670565590262413 1.063438177108765 0.156896561384201 0.8645581603050232 C 0.2923065423965454 0.543938159942627 0.5240565538406372 0.3066381812095642 0.8404465317726135 0.163748174905777 C 1.052026510238647 0.06218817457556725 1.297456502914429 0.006208173930644989 1.565666556358337 0.005878173746168613 C 4.720447063446045 0.004898173734545708 7.873925685882568 0.0006681744707748294 11.02804660797119 0.005228173919022083 C 11.70314693450928 0.004248173907399178 12.37888622283936 0.002298173727467656 13.05397701263428 1.817382872104645e-05 C 13.17442989349365 -0.0003018467978108674 13.29289627075195 0.003598192241042852 13.41072654724121 0.01075817365199327 C 14.30846691131592 0.02735817432403564 15.12743663787842 0.3424481749534607 15.85916614532471 0.8609781861305237 C 16.12661933898926 1.047283887863159 16.31279182434082 1.048355221748352 16.58308601379395 0.8609781861305237 C 17.31351661682129 0.342128187417984 18.13313674926758 0.02703817375004292 19.03216743469238 0.01075817365199327 C 19.14935684204102 0.003598169889301062 19.2678279876709 -0.0003018220013473183 19.38762664794922 1.817382872104645e-05 C 20.0633659362793 0.002298173727467656 20.73845672607422 0.004248173907399178 21.4135570526123 0.005228173919022083 C 24.56767654418945 0.000668172724545002 27.7218074798584 0.004898173734545708 30.87527656555176 0.005878173746168613 C 31.13568687438965 0.006208173930644989 31.37460708618164 0.05893817543983459 31.58227729797363 0.1552881747484207 C 31.91689682006836 0.300458163022995 32.15841674804688 0.5491482019424438 32.2957763671875 0.8889681696891785 C 32.37845611572266 1.081988215446472 32.42467498779297 1.300078153610229 32.42662811279297 1.536068201065063 C 32.42858505249023 1.842688202857971 32.42858505249023 2.149968147277832 32.42858505249023 2.456918239593506 C 32.42858505249023 2.624228239059448 32.42858505249023 2.791858196258545 32.42922592163086 2.959818124771118 C 32.42988586425781 3.233238220214844 32.43118667602539 3.506988286972046 32.43183517456055 3.780408143997192 L 32.44094467163086 5.800807952880859 C 32.4402961730957 5.860378265380859 32.43964767456055 5.919618129730225 32.43964767456055 5.979508399963379 C 32.43964767456055 6.116228103637695 32.4402961730957 6.253258228302002 32.44094467163086 6.390298366546631 C 32.43964767456055 6.501297950744629 32.43834686279297 6.612287998199463 32.43639755249023 6.723608016967773 C 32.43639755249023 7.436138153076172 32.44225692749023 8.14866828918457 32.44225692749023 8.838727951049805 C 32.43639755249023 9.407057762145996 32.43118667602539 9.498528480529785 32.44225692749023 9.827938079833984 C 32.44225692749023 9.923638343811035 32.44225692749023 10.01900863647461 32.44159698486328 10.11470794677734 C 32.44225692749023 10.11763858795166 32.44225692749023 10.12056827545166 32.44225692749023 10.12316799163818 L 32.44225692749023 14.54252815246582 C 32.43248748779297 15.35953807830811 32.4207649230957 16.17687797546387 32.41100692749023 16.9958381652832 C 32.41165542602539 17.05735778808594 32.41230773925781 17.11920738220215 32.41230773925781 17.18137741088867 C 32.41425704956055 17.60843849182129 32.41686630249023 18.03549766540527 32.41946792602539 18.46288871765137 C 32.42272567749023 18.5615177154541 32.42662811279297 18.65981864929199 32.43248748779297 18.75811767578125 C 32.4402961730957 18.8980884552002 32.43834686279297 19.03446769714355 32.42532730102539 19.16661834716797 C 32.42532730102539 19.17768859863281 32.42532730102539 19.18842887878418 32.42532730102539 19.1998291015625 C 32.42792510986328 19.43418884277344 32.35111618041992 19.63567733764648 32.24955749511719 19.8273983001709 C 32.18770599365234 19.9631290435791 32.11154556274414 20.09430885314941 32.01779556274414 20.22157859802246 C 32.01584625244141 20.22417831420898 32.01454544067383 20.2264575958252 32.01323699951172 20.2293872833252 C 31.5939884185791 20.55554962158203 31.11748313903809 20.64151000976562 30.58948707580566 20.63854789733887 C 30.31997680664062 20.6375789642334 30.05110740661621 20.63691902160645 29.78158569335938 20.63594818115234 C 28.51342582702637 20.63301658630371 27.24722862243652 20.63333892822266 25.98036575317383 20.63431739807129 C 24.55792045593262 20.63529968261719 23.13546562194824 20.6356201171875 21.71301651000977 20.63105773925781 C 20.94157600402832 20.63105773925781 20.16947746276855 20.63138771057129 19.39803695678711 20.63138771057129 C 19.24309730529785 20.63138771057129 19.09987640380859 20.64115905761719 18.96772575378418 20.66100883483887 C 18.48988723754883 20.76126861572266 18.07584571838379 21.0395679473877 17.85384750366211 21.47378730773926 C 17.7685661315918 21.67852783203125 17.71518707275391 21.92233848571777 17.69174575805664 22.20812797546387 C 17.68654632568359 22.26736831665039 17.67807579040527 22.32562828063965 17.66635704040527 22.38259887695312 C 17.57782745361328 22.9802188873291 17.07068634033203 23.44796752929688 16.47306632995605 23.55310821533203 C 16.39103698730469 23.5677490234375 16.30705642700195 23.5755672454834 16.22177696228027 23.5755672454834 Z" stroke="none" fill="rgba(255,255,255,0.4)"/>
        </g>
        <path id="Path_882" data-name="Path 882" d="M18.295,42.481a1.453,1.453,0,0,0-1.412,1.5,1.841,1.841,0,0,0,.6,1.234,4.058,4.058,0,0,0,1.585.21c.636-.018,1.276-.022,1.912,0a2.077,2.077,0,0,0,1.214-.295,1.453,1.453,0,0,0,.527-1.565,1.413,1.413,0,0,0-1.345-1.087c-.538-.008-1.077-.014-1.615-.014q-.734,0-1.466.015" transform="translate(-11.126 -36.577)" fill="#c4d1fe"/>
        <path id="Path_883" data-name="Path 883" d="M39.383,42.481a1.453,1.453,0,0,0-1.412,1.5,1.843,1.843,0,0,0,.6,1.234,4.06,4.06,0,0,0,1.585.21c.637-.018,1.276-.022,1.913,0a2.077,2.077,0,0,0,1.214-.295,1.457,1.457,0,0,0,.527-1.565,1.414,1.414,0,0,0-1.345-1.087c-.539-.008-1.077-.014-1.615-.014q-.733,0-1.466.015" transform="translate(-17.481 -36.577)" fill="#c4d1fe"/>
        <path id="Path_884" data-name="Path 884" d="M30.426,46.793a1.521,1.521,0,0,0-.874,1.269q-.035,1.593,0,3.188a1.468,1.468,0,0,0,1.388,1.338,1.368,1.368,0,0,0,1.466-1.2,24.031,24.031,0,0,0,.089-2.88,1.686,1.686,0,0,0-.886-1.713,2.855,2.855,0,0,0-.667-.1,1.283,1.283,0,0,0-.512.1" transform="translate(-14.939 -37.85)" fill="#c4d1fe"/>
        <path id="Path_885" data-name="Path 885" d="M19.865,50.913c-.507,0-1.014-.011-1.522,0a1.47,1.47,0,0,0-.027,2.938q1.521.029,3.043,0A1.455,1.455,0,0,0,22.786,52.4a1.474,1.474,0,0,0-1.449-1.485c-.186,0-.372-.006-.558-.006-.3,0-.609,0-.915,0" transform="translate(-11.13 -39.121)" fill="#c4d1fe"/>
        <path id="Path_886" data-name="Path 886" d="M39.438,50.915a1.471,1.471,0,0,0,.007,2.941c.982.015,1.963.013,2.945,0a1.459,1.459,0,0,0,1.483-1.448,1.476,1.476,0,0,0-1.49-1.494c-.49-.01-.982,0-1.473,0-.161,0-.321,0-.481,0l-.45,0c-.18,0-.36,0-.541.006" transform="translate(-17.485 -39.121)" fill="#c4d1fe"/>
      </g>
      <g id="Group_497" data-name="Group 497" transform="translate(13.732 0)">
        <path id="Path_880" data-name="Path 880" d="M31.678,5.873h0a6.826,6.826,0,0,0-2.342-3.955A4.91,4.91,0,0,0,27.9.883,7.384,7.384,0,0,0,21.79.475a6.161,6.161,0,0,0-2.349,1.444,1.367,1.367,0,0,0-.2.138,7.353,7.353,0,0,0-1.913,2.959c-.059.18-.127.358-.175.541a6.7,6.7,0,0,0-.066,3.55.434.434,0,0,1,.044-.05.389.389,0,0,0-.044.05,6.462,6.462,0,0,0,1.576,3.213,4.737,4.737,0,0,0,1.183,1.172,7.428,7.428,0,0,0,8.539.356,6.045,6.045,0,0,0,1.735-1.528,6.554,6.554,0,0,0,1.576-3.214,6.688,6.688,0,0,0-.015-3.235M17.463,8.946a.9.9,0,0,0-.13.013m1.806,3.2c.851,0-1.059-3.216-1.614-3.217" transform="translate(-16.873 0)" fill="#6094ea"/>
        <path id="Path_887" data-name="Path 887" d="M8.312,3.405c.141-.706.223-1.422.4-2.123A5.066,5.066,0,0,1,9.133.158C9.166.094,9.19.014,9.265,0c.11-.018.125.094.162.16a7.627,7.627,0,0,1,.723,2.479c.051.3.091.6.136.905a1.146,1.146,0,0,0,.005.177c.055.3-.047.424-.375.4a9.928,9.928,0,0,0-1.278,0c-.293.017-.382-.091-.342-.364a3.165,3.165,0,0,0,.016-.355" transform="translate(-1.649 2.381)" fill="#c4d1fe"/>
        <path id="Path_888" data-name="Path 888" d="M10.294,12.663a15.542,15.542,0,0,1-.654,3.214c-.349.582-.349.582-.7,0a17.8,17.8,0,0,1-.614-2.687c-.029-.178,0-.353-.04-.526-.034-.263.048-.383.346-.365a10.925,10.925,0,0,0,1.316,0c.3-.018.38.1.345.365" transform="translate(-1.645 -3.664)" fill="#c4d1fe"/>
        <path id="Path_889" data-name="Path 889" d="M15.485,15.872a11,11,0,0,1,.288-1.421c.1-.571.1-1.15.2-1.72-.044-.357.113-.465.465-.438a10.042,10.042,0,0,0,1.274,0c.283-.014.4.071.323.356a5.634,5.634,0,0,1-1.6,2.518c-.286.247-.6.465-.9.7a.143.143,0,0,0-.046.006" transform="translate(-5.187 -3.661)" fill="#c4d1fe"/>
        <path id="Path_890" data-name="Path 890" d="M.307,3.591A6.682,6.682,0,0,1,2.173,1.377c.1-.078.223-.2.343-.137.162.088.012.241-.014.348A16.765,16.765,0,0,0,2.1,4c-.058.713-.058.713-.8.713-.331,0-.662-.009-.993,0C.064,4.73-.05,4.673.053,4.4s.17-.538.254-.808" transform="translate(2.418 1.78)" fill="#c4d1fe"/>
        <path id="Path_891" data-name="Path 891" d="M2.083,12.732a13.951,13.951,0,0,0,.437,2.793.742.742,0,0,1,.045.347.124.124,0,0,0-.043-.006A7.138,7.138,0,0,1,.946,14.441a6.5,6.5,0,0,1-.923-1.788c-.075-.285.04-.371.323-.356a9.949,9.949,0,0,0,1.274,0c.351-.027.509.079.464.437" transform="translate(2.425 -3.661)" fill="#c4d1fe"/>
        <path id="Path_892" data-name="Path 892" d="M15.888,4.077a11.948,11.948,0,0,0-.454-2.991A5.241,5.241,0,0,1,17.891,4.08c.2.571.2.571-.4.571-.379,0-.761-.02-1.138.007-.308.021-.449-.068-.4-.388a.185.185,0,0,0-.064-.192" transform="translate(-5.162 1.847)" fill="#c4d1fe"/>
      </g>
    </g>
  </g>
</svg>
