<svg xmlns="http://www.w3.org/2000/svg" xmlns:xlink="http://www.w3.org/1999/xlink" width="90" height="90" viewBox="0 0 90 90">
  <defs>
    <linearGradient id="linear-gradient" x1="0.5" x2="0.5" y2="1" gradientUnits="objectBoundingBox">
      <stop offset="0" stop-color="#6094ea"/>
      <stop offset="1" stop-color="#072138"/>
    </linearGradient>
  </defs>
  <g id="livechat-icon" transform="translate(-1385 -4292)">
    <rect id="Bg" width="90" height="90" rx="45" transform="translate(1385 4292)" fill="rgba(96,148,234,0.16)"/>
    <g id="Group_1445" data-name="Group 1445" transform="translate(1405.667 4314.956)">
      <path id="Union_24" data-name="Union 24" d="M30.615,38.084a1.846,1.846,0,0,1-.886-.274q-3.494-2.016-6.98-4.037a.687.687,0,0,0-.477-.1,17.79,17.79,0,0,1-4.82.662A17.286,17.286,0,0,1,0,17.215,17.282,17.282,0,0,1,17.223.1l.016-.1c.2,0,.407.012.61.012A17.175,17.175,0,0,1,34.534,13.5a15.755,15.755,0,0,1,.37,3.564c0,.051,0,.1,0,.152a16.973,16.973,0,0,1-.133,2.126,15.535,15.535,0,0,1-.527,2.553,16.71,16.71,0,0,1-.926,2.46c-.05.111-.1.221-.155.331a15.87,15.87,0,0,1-2.733,3.992.69.69,0,0,0-.209.758c.623,2.221,1.219,4.452,1.816,6.681a1.527,1.527,0,0,1-.623,1.713,1.353,1.353,0,0,1-.768.255Z" transform="translate(13.761 6.005)" stroke="rgba(0,0,0,0)" stroke-miterlimit="10" stroke-width="1" fill="url(#linear-gradient)"/>
      <path id="Path_814" data-name="Path 814" d="M32.949,10.789a26.928,26.928,0,0,0-1.794-3.443L29.919,5.769a17.247,17.247,0,0,0-8.752-5.3A13.762,13.762,0,0,0,17.045.019,14.914,14.914,0,0,0,10.56,1.3C4.105,4.2.508,9.2.038,16.255A16.373,16.373,0,0,0,4.546,28.67a.6.6,0,0,1,.164.647c-.606,2.2-1.184,4.413-1.787,6.616a1.5,1.5,0,0,0,2.294,1.749c2.269-1.324,4.551-2.626,6.822-3.948a.992.992,0,0,1,.822-.114,14.481,14.481,0,0,0,4.185.511l1.455.019a20.124,20.124,0,0,0,4.921-1.2,17.257,17.257,0,0,0,7.537-5.906c.095-.13.2-.25.3-.375a.475.475,0,0,1,.122-.309,16.642,16.642,0,0,0,2.629-7.285,17.1,17.1,0,0,0-1.066-8.29" transform="translate(0.336 0.335)" fill="#6094ea"/>
      <g id="Path_4059" data-name="Path 4059" transform="translate(0.501 0.5)" fill="none">
        <path d="M4.084,38.161a1.694,1.694,0,0,1-1.047-.375,1.828,1.828,0,0,1-.6-2.105c.281-1.029.562-2.077.834-3.091.31-1.156.63-2.352.953-3.526a.28.28,0,0,0-.09-.333A16.67,16.67,0,0,1-.461,16.068,17.713,17.713,0,0,1,2.616,6.86,18.307,18.307,0,0,1,10.258.83,15.268,15.268,0,0,1,16.874-.481c.209-.012.424-.018.638-.018a14.916,14.916,0,0,1,3.57.483,17.227,17.227,0,0,1,4.872,2.023A18.748,18.748,0,0,1,30,5.379l.016.019.618.788.619.788a.336.336,0,0,1,.027.041q.145.255.292.509A22.507,22.507,0,0,1,33.1,10.5a17.525,17.525,0,0,1,1.087,8.45,17.058,17.058,0,0,1-2.681,7.43l-.026.039c-.014.021-.034.051-.043.068a.336.336,0,0,1-.075.231l-.1.123c-.069.081-.133.158-.191.237A17.672,17.672,0,0,1,23.385,33.1a20.624,20.624,0,0,1-5,1.22.334.334,0,0,1-.051,0h-.02L16.886,34.3c-.148.005-.3.008-.448.008a15.189,15.189,0,0,1-3.825-.53.864.864,0,0,0-.215-.031.675.675,0,0,0-.354.11c-1.078.627-2.175,1.26-3.237,1.872-1.176.678-2.392,1.38-3.585,2.075A2.255,2.255,0,0,1,4.084,38.161ZM16.526.186a14.542,14.542,0,0,0-5.994,1.256C4.139,4.31.666,9.246.209,16.113A16.023,16.023,0,0,0,4.63,28.28a.932.932,0,0,1,.239.961c-.323,1.172-.643,2.367-.952,3.522-.272,1.015-.553,2.064-.835,3.095a1.171,1.171,0,0,0,.363,1.4,1.025,1.025,0,0,0,.638.236,1.615,1.615,0,0,0,.8-.261c1.194-.7,2.411-1.4,3.588-2.077,1.061-.612,2.158-1.244,3.234-1.871a1.333,1.333,0,0,1,.692-.2,1.522,1.522,0,0,1,.383.052,14.532,14.532,0,0,0,3.658.509c.144,0,.289,0,.431-.008h.017l1.43.019a19.948,19.948,0,0,0,4.814-1.173,17.009,17.009,0,0,0,7.394-5.793c.071-.1.147-.188.22-.275l.027-.032a.845.845,0,0,1,.148-.33l.021-.031a16.393,16.393,0,0,0,2.577-7.14,16.861,16.861,0,0,0-1.045-8.13A22,22,0,0,0,30.994,7.86q-.141-.245-.282-.491l-.6-.769L29.5,5.822A17,17,0,0,0,20.922.635a14.064,14.064,0,0,0-3.41-.463c-.205,0-.411.006-.611.018h-.027C16.758.188,16.641.186,16.526.186Z" stroke="none"/>
        <path d="M 4.083882808685303 38.16080856323242 C 3.712862730026245 38.16080856323242 3.360522747039795 38.03456878662109 3.036652803421021 37.78559112548828 C 2.391152620315552 37.2887077331543 2.18897271156311 36.58041000366211 2.435582637786865 35.68025970458984 C 2.717042684555054 34.65124893188477 2.997852802276611 33.60298919677734 3.269412755966187 32.58924865722656 C 3.579132795333862 31.4330997467041 3.899382829666138 30.23758888244629 4.222512722015381 29.06350898742676 C 4.263722896575928 28.91287994384766 4.249452590942383 28.85988998413086 4.132552623748779 28.73044013977051 C 0.7716526985168457 25.0203800201416 -0.7740472555160522 20.75998878479004 -0.4612372815608978 16.06802940368652 C -0.2242172807455063 12.50965976715088 0.8111727237701416 9.411609649658203 2.616162776947021 6.859959602355957 C 4.40526294708252 4.330759525299072 6.976302623748779 2.301899433135986 10.25786304473877 0.8297094702720642 C 12.30373382568359 -0.08799083530902863 14.53020095825195 -0.5296100974082947 16.87439346313477 -0.481300562620163 C 17.08373260498047 -0.4934705495834351 17.29817199707031 -0.4996505677700043 17.51197242736816 -0.4996505677700043 C 18.59487342834473 -0.4996505677700043 19.76274299621582 -0.3417505621910095 21.08230209350586 -0.01694055832922459 C 22.81734275817871 0.4103594422340393 24.45646286010742 1.091079473495483 25.95418357849121 2.006329536437988 C 27.40768241882324 2.894559383392334 28.76961326599121 4.02916955947876 30.00212287902832 5.378659248352051 C 30.00780296325684 5.384859561920166 30.01323318481445 5.391279220581055 30.01842308044434 5.397899627685547 C 30.22445297241211 5.660649299621582 30.43066215515137 5.923399448394775 30.63687324523926 6.186159610748291 C 30.84314346313477 6.448979377746582 31.04940223693848 6.711799621582031 31.25550270080566 6.974629402160645 C 31.26566314697266 6.987579345703125 31.27485275268555 7.001259326934814 31.28300285339355 7.01556921005249 C 31.37993240356445 7.185669422149658 31.47766304016113 7.355299472808838 31.57537269592285 7.524899482727051 C 32.12034225463867 8.470839500427246 32.68388366699219 9.448979377746582 33.09733200073242 10.50180912017822 C 34.14755249023438 13.17292976379395 34.51331329345703 16.0161190032959 34.18439102172852 18.95226860046387 C 33.8891716003418 21.59103012084961 32.98715209960938 24.09084892272949 31.50334358215332 26.38224029541016 C 31.49480247497559 26.39542961120605 31.48611259460449 26.40844917297363 31.4774227142334 26.42145919799805 C 31.46333312988281 26.44254875183105 31.44307327270508 26.47287940979004 31.4345531463623 26.4897403717041 C 31.43926239013672 26.57330894470215 31.41255187988281 26.65584945678711 31.35934257507324 26.7209587097168 C 31.32558250427246 26.76226997375488 31.29119300842285 26.80303001403809 31.25680351257324 26.84375953674316 C 31.18821334838867 26.92499923706055 31.1234130859375 27.00174903869629 31.06622314453125 27.0804500579834 C 29.08892250061035 29.79335975646973 26.50465202331543 31.81820869445801 23.38491249084473 33.09912109375 C 21.68492317199707 33.79685974121094 19.90241241455078 34.10742950439453 18.38294219970703 34.31921005249023 C 18.36606216430664 34.32155990600586 18.34901809692383 34.32268142700195 18.33197212219238 34.3223876953125 L 18.3123722076416 34.32212829589844 C 17.8365535736084 34.3155403137207 17.36133193969727 34.30896759033203 16.88550186157227 34.30303955078125 C 15.55509757995605 34.35226058959961 14.1633996963501 34.18256378173828 12.61220264434814 33.78145980834961 C 12.38718032836914 33.72353744506836 12.24912357330322 33.74087142944336 12.04361248016357 33.86061859130859 C 10.96598243713379 34.48781967163086 9.868332862854004 35.12080764770508 8.806812286376953 35.73295974731445 C 7.630642890930176 36.41120910644531 6.414442539215088 37.1125602722168 5.221972942352295 37.80807876586914 C 4.81522274017334 38.04541778564453 4.442932605743408 38.16080856323242 4.083882808685303 38.16080856323242 Z M 16.526123046875 0.1863394379615784 C 14.40680313110352 0.1863394379615784 12.39029312133789 0.6088494658470154 10.5325927734375 1.442139387130737 C 4.139412879943848 4.31028938293457 0.6658827066421509 9.246179580688477 0.2085027247667313 16.1126594543457 C -0.09171728044748306 20.61606025695801 1.396012663841248 24.70979881286621 4.630372524261475 28.28017997741699 C 4.900732517242432 28.57956886291504 4.972232818603516 28.86684036254883 4.869812488555908 29.24114036560059 C 4.547162532806396 30.41349029541016 4.227202892303467 31.60787963867188 3.917782783508301 32.762939453125 C 3.646002769470215 33.77751922607422 3.364962816238403 34.8266487121582 3.082992792129517 35.85747909545898 C 2.908252716064453 36.49531936645508 3.02020263671875 36.92584991455078 3.445932626724243 37.25355911254883 C 3.652452707290649 37.41233825683594 3.861182689666748 37.48957824707031 4.083882808685303 37.48957824707031 C 4.320792675018311 37.48957824707031 4.582422733306885 37.40410995483398 4.883732795715332 37.22829818725586 C 6.07769250869751 36.53190994262695 7.294622898101807 35.83013916015625 8.471492767333984 35.1514778137207 C 9.532432556152344 34.53965759277344 10.62950229644775 33.90702056884766 11.70581245422363 33.28057861328125 C 11.94122314453125 33.14339828491211 12.16101264953613 33.0794677734375 12.39737224578857 33.0794677734375 C 12.51878261566162 33.0794677734375 12.64391231536865 33.09650039672852 12.77992248535156 33.13151931762695 C 14.27082920074463 33.51702499389648 15.60238742828369 33.67971038818359 16.86871337890625 33.6319694519043 C 16.87432289123535 33.63175964355469 16.87994384765625 33.63168716430664 16.88555335998535 33.63174819946289 C 17.36246299743652 33.63768768310547 17.83875274658203 33.64427947998047 18.31564331054688 33.65087127685547 C 19.78802299499512 33.44495010375977 21.50844192504883 33.14371871948242 23.13000297546387 32.47816848754883 C 26.13315200805664 31.2451286315918 28.62069320678711 29.29616928100586 30.52350234985352 26.68544960021973 C 30.59479331970215 26.58736991882324 30.67061233520508 26.49757957458496 30.74392318725586 26.41073036193848 C 30.75299263000488 26.39997863769531 30.7620735168457 26.38924026489258 30.77113342285156 26.37846946716309 C 30.79627227783203 26.23274993896484 30.87006187438965 26.12226867675781 30.91925239562988 26.04862022399902 C 30.92620277404785 26.0382194519043 30.93317222595215 26.02781867980957 30.93996238708496 26.01733016967773 C 32.36662292480469 23.81418037414551 33.23378372192383 21.41201019287109 33.5173225402832 18.87759017944336 C 33.83395385742188 16.0511589050293 33.48245239257812 13.315749168396 32.47260284423828 10.74729919433594 C 32.07734298706055 9.740809440612793 31.5264835357666 8.784649848937988 30.99375343322754 7.859989643096924 C 30.89963340759277 7.696619510650635 30.80550193786621 7.533219337463379 30.71207237243652 7.369409561157227 C 30.5111026763916 7.113129615783691 30.30998229980469 6.85685920715332 30.10884284973145 6.600559234619141 C 29.90518188476562 6.34105920791626 29.70152282714844 6.081549644470215 29.49801254272461 5.822049617767334 C 27.08961296081543 3.188349485397339 24.20430183410645 1.443219423294067 20.92183303833008 0.6348294615745544 C 19.63790321350098 0.3187894523143768 18.55439186096191 0.1715894341468811 17.51197242736816 0.1715894341468811 C 17.30675315856934 0.1715894341468811 17.10107231140137 0.1776294410228729 16.9006233215332 0.1895594447851181 C 16.89161491394043 0.1900894492864609 16.8825626373291 0.1902594268321991 16.87351226806641 0.1900694370269775 C 16.75794219970703 0.1875894367694855 16.64105224609375 0.1863394379615784 16.526123046875 0.1863394379615784 Z" stroke="none" fill="rgba(255,255,255,0.4)"/>
      </g>
      <path id="Path_816" data-name="Path 816" d="M14.22,23.265A1.461,1.461,0,1,0,15.689,24.7a1.464,1.464,0,0,0-1.469-1.439" transform="translate(-3.861 -7.313)" fill="#c4d1fe"/>
      <path id="Path_817" data-name="Path 817" d="M35.251,23.265a1.46,1.46,0,0,0-.006,2.921,1.46,1.46,0,1,0,.006-2.921" transform="translate(-10.774 -7.313)" fill="#c4d1fe"/>
      <path id="Path_818" data-name="Path 818" d="M24.681,23.271l.011-.028a1.556,1.556,0,0,0-1.451,1.425c-.036.754.526,1.346,1.45,1.527l-.011-.03a1.45,1.45,0,1,0,0-2.894" transform="translate(-7.304 -7.306)" fill="#c4d1fe"/>
    </g>
  </g>
</svg>
