<svg xmlns="http://www.w3.org/2000/svg" xmlns:xlink="http://www.w3.org/1999/xlink" width="90" height="90" viewBox="0 0 90 90">
  <defs>
    <clipPath id="clip-path">
      <rect id="Rectangle_10923" data-name="Rectangle 10923" width="48" height="48" fill="none"/>
    </clipPath>
    <linearGradient id="linear-gradient" x1="0.5" y1="-0.209" x2="0.5" y2="1" gradientUnits="objectBoundingBox">
      <stop offset="0" stop-color="#6094ea"/>
      <stop offset="1" stop-color="#072138"/>
    </linearGradient>
  </defs>
  <g id="notifications-icon" transform="translate(-1385 -4292)">
    <rect id="Bg" width="90" height="90" rx="45" transform="translate(1385 4292)" fill="rgba(96,148,234,0.16)"/>
    <g id="Group_1451" data-name="Group 1451" transform="translate(1406 4313)">
      <g id="Group_1450" data-name="Group 1450" clip-path="url(#clip-path)">
        <path id="Path_5202" data-name="Path 5202" d="M40.452,38.237q0-4.48,0-8.962l0-4.045c0-.07,0-.141,0-.211q0-.784,0-1.568h0c0-.8-.009-1.6-.024-2.4a4.137,4.137,0,0,0-3.383-4,5.633,5.633,0,0,0-1.164-.093q-5.583,0-11.166,0l-.054-.1a.332.332,0,0,1-.188.1H24.1l-.018,0H16.37l-.018,0h-.371a.333.333,0,0,1-.187-.1c-.019.035-.036.07-.055.1q-5.583,0-11.165,0a5.622,5.622,0,0,0-1.164.093,4.136,4.136,0,0,0-3.383,4c-.015.8-.021,1.6-.024,2.4H0q0,.785,0,1.568v.211q0,2.022,0,4.045h.01q0,4.481,0,8.962c0,.15-.049.317.088.443a2.4,2.4,0,0,0,.042.512,4.219,4.219,0,0,0,4.112,3.144c.386,0,.472.129.466.486-.019,1.191.007,2.383-.014,3.574a1.43,1.43,0,0,0,.856,1.479,1.494,1.494,0,0,0,1.707-.41c.716-.651,1.465-1.266,2.2-1.9,1.1-.948,2.208-1.885,3.285-2.857a1.232,1.232,0,0,1,.9-.371q11.262.015,22.523.006a3.771,3.771,0,0,0,.607-.038,4.461,4.461,0,0,0,2.725-1.6,3.119,3.119,0,0,0,.851-2.024c.137-.126.088-.293.088-.443" fill="url(#linear-gradient)"/>
        <path id="Path_5203" data-name="Path 5203" d="M48,12.066A12.066,12.066,0,1,0,35.934,24.132,12.066,12.066,0,0,0,48,12.066" fill="#6094ea" stroke="rgba(255,255,255,0.4)" stroke-width="1"/>
        <path id="Path_5204" data-name="Path 5204" d="M37.349,5.954a1.411,1.411,0,1,0-2.821,0c-.009.469-.009.939-.014,1.408q0,1.692,0,3.385V12.91c.005.171.011.342.013.513a1.354,1.354,0,0,0,1.4,1.459,1.4,1.4,0,0,0,1.42-1.467c.008-.638.01-1.277.015-1.915V7.456c0-.5,0-1-.014-1.5" fill="#c4d1fe"/>
        <path id="Path_5205" data-name="Path 5205" d="M35.68,16.786a1.339,1.339,0,0,0-1.119,1.065,1.584,1.584,0,0,0,.362,1.352,1.517,1.517,0,0,0,2.032,0c.058-.092.117-.184.173-.278a1.412,1.412,0,0,0-1.448-2.139" fill="#c4d1fe"/>
        <path id="Path_5206" data-name="Path 5206" d="M20.185,26.83H9.047a1.4,1.4,0,0,1-1.322-.73,1.3,1.3,0,0,1,.063-1.461A1.451,1.451,0,0,1,9.073,24q4.417.009,8.835,0H31.442a1.4,1.4,0,0,1,1.309.753,1.3,1.3,0,0,1-.085,1.46,1.437,1.437,0,0,1-1.3.611q-5.594-.006-11.185,0" fill="#c4d1fe"/>
        <path id="Path_5207" data-name="Path 5207" d="M20.236,35.294H9.052a1.4,1.4,0,0,1-1.325-.726,1.3,1.3,0,0,1,.058-1.462A1.442,1.442,0,0,1,9.07,32.47c2.146.007,4.291,0,6.437,0q7.918,0,15.837,0a1.439,1.439,0,0,1,1.448.833,1.394,1.394,0,0,1-1.278,1.986c-1.441.016-2.882,0-4.323,0H20.236" fill="#c4d1fe"/>
      </g>
    </g>
  </g>
</svg>
