<svg xmlns="http://www.w3.org/2000/svg" xmlns:xlink="http://www.w3.org/1999/xlink" width="90" height="90" viewBox="0 0 90 90">
  <defs>
    <linearGradient id="linear-gradient" x1="0.5" x2="0.5" y2="1" gradientUnits="objectBoundingBox">
      <stop offset="0" stop-color="#6094ea"/>
      <stop offset="1" stop-color="#072138"/>
    </linearGradient>
  </defs>
  <g id="omnichannel-icon" transform="translate(-530 -2535)">
    <rect id="Bg" width="90" height="90" rx="45" transform="translate(530 2535)" fill="rgba(96,148,234,0.16)"/>
    <g id="omnichannel-icon-2" data-name="omnichannel-icon" transform="translate(550.84 2555.833)">
      <path id="Union_18" data-name="Union 18" d="M14.111,27.524h-.189a.177.177,0,0,0-.288,0q-.623-.036-1.244-.074a6.746,6.746,0,0,1-1.648-.234A14.147,14.147,0,0,1,7.175,25.88c-.65-.341-1.213-.809-1.84-1.176v.005c-.089-.031-.177-.06-.264-.091,0-.166-.132-.247-.239-.339a12.373,12.373,0,0,1-1.487-1.484c-.089-.109-.173-.236-.339-.239-.4-.744-.963-1.386-1.353-2.14A12.407,12.407,0,0,1,.107,15.232a10.047,10.047,0,0,1,0-2.92A12.4,12.4,0,0,1,1.653,7.128c.389-.753.949-1.4,1.353-2.14.166,0,.25-.129.339-.238A12.125,12.125,0,0,1,4.832,3.266c.107-.092.235-.173.239-.34l.264-.09v0c.627-.368,1.19-.835,1.84-1.175A14.09,14.09,0,0,1,10.742.327,6.8,6.8,0,0,1,12.39.091L13.634.019a.177.177,0,0,0,.288,0h.189A.173.173,0,0,0,14.2.151a.173.173,0,0,1-.087-.133L15.278,0c.724.181,1.469.252,2.194.453A13.893,13.893,0,0,1,22.093,2.72c.077.058.152.119.231.169,0-.018,0-.036,0-.053l.269.09c.021.219.2.318.344.434a9.146,9.146,0,0,1,1.277,1.279c.118.143.218.322.435.344a.93.93,0,0,0,.236.461,13.761,13.761,0,0,1,2.3,4.661c.049.179.091.36.128.541q.106.461.172.934c.043.238.088.476.145.711,0,.019,0,.038,0,.058v0q0,.711,0,1.421t0,1.42v0c0,.019,0,.04,0,.059-.056.233-.1.468-.144.7q-.068.494-.18.973c-.035.171-.075.341-.122.51a13.775,13.775,0,0,1-2.3,4.661.919.919,0,0,0-.236.461c-.217.021-.316.2-.435.344a9.146,9.146,0,0,1-1.277,1.279c-.145.116-.323.215-.344.434l-.269.09c0-.018,0-.036,0-.054-.08.05-.154.111-.231.169a13.92,13.92,0,0,1-4.622,2.267c-.725.2-1.47.272-2.194.453Z" transform="translate(10.333 10.357)" stroke="rgba(0,0,0,0)" stroke-miterlimit="10" stroke-width="1" fill="url(#linear-gradient)"/>
      <path id="Union_29" data-name="Union 29" d="M43.7,48.323a2.1,2.1,0,0,1-.761-.139,4.5,4.5,0,0,1-3.449-5.907c.058-.168.13-.33.195-.5h0Q37.845,39.923,36,38.068q-1.5-1.51-3.014-3.014c.02-.222.2-.321.346-.439a9.154,9.154,0,0,0,1.287-1.288c.119-.146.219-.324.438-.346q3.152,3.151,6.306,6.3c.137.136.283.264.424.395l-.085.046.085-.046a3.67,3.67,0,0,1,1.153-.346,4.381,4.381,0,0,1,.982-.113,4.141,4.141,0,0,1,2.61.956,4.307,4.307,0,0,1,1.783,3.41v.088a5.046,5.046,0,0,1-.165,1.214,4.367,4.367,0,0,1-3.732,3.367,4.141,4.141,0,0,1-.68.072ZM3.723,48.185a4.268,4.268,0,0,1-3.4-2.845,4.293,4.293,0,0,1,.81-4.538,4.051,4.051,0,0,1,2.6-1.472,3.2,3.2,0,0,1,.864-.116,4.757,4.757,0,0,1,1.454.258c.167.054.33.125.495.189a5.061,5.061,0,0,1,2.1,2.1A4.559,4.559,0,0,1,6.5,47.86a4.3,4.3,0,0,1-1.844.443A3.758,3.758,0,0,1,3.723,48.185Zm2.818-8.523q2.431-2.415,4.86-4.83c.62-.616,1.235-1.239,1.853-1.86.167,0,.253.132.342.242a12.24,12.24,0,0,0,1.5,1.5c.107.093.236.173.239.342l-6.69,6.714A5.061,5.061,0,0,0,6.541,39.662Zm0-31.027a4.828,4.828,0,0,1-2.348.431.712.712,0,0,1-.462-.1A4.5,4.5,0,0,1,3.722.114,4.455,4.455,0,0,1,4.687.005a4.287,4.287,0,0,1,2.706,1A4.541,4.541,0,0,1,8.644,6.531q2.245,2.26,4.487,4.518c.732.735,1.469,1.465,2.2,2.2-.059.264-.3.355-.472.518a8.987,8.987,0,0,0-1.2,1.246c-.1.141-.205.3-.406.315Zm28.084,6.337a9.143,9.143,0,0,0-1.288-1.288c-.144-.118-.326-.218-.344-.439q3.151-3.149,6.3-6.3c.136-.136.262-.283.392-.427A4.54,4.54,0,0,1,42.652.151a2.1,2.1,0,0,1,.286-.036A4.351,4.351,0,0,1,43.925,0a4.12,4.12,0,0,1,2.568.92,4.4,4.4,0,0,1,1.673,4.745A4.5,4.5,0,0,1,44.382,9.04a2.694,2.694,0,0,1-1.436-.074,3.522,3.522,0,0,1-1.152-.347q-2.131,2.117-4.263,4.233c-.826.821-1.646,1.644-2.469,2.467C34.843,15.3,34.741,15.117,34.624,14.972Z" transform="translate(0 0.01)" fill="#6094ea" stroke="rgba(0,0,0,0)" stroke-miterlimit="10" stroke-width="1"/>
      <path id="Union_28" data-name="Union 28" d="M44.094,27.639a.647.647,0,0,1-.129-.069A3.44,3.44,0,0,1,41.5,25.6l-3.427.017V22.7c1.142.008,2.285.013,3.427.02a3.434,3.434,0,0,1,2.463-1.964,3.485,3.485,0,0,1,4.19,2.427,3.552,3.552,0,0,1-3.4,4.52A3.744,3.744,0,0,1,44.094,27.639ZM2.727,27.565A3.49,3.49,0,0,1,.676,22.083a3.136,3.136,0,0,1,2.051-1.327,3.392,3.392,0,0,1,3.679,1.354c.139.194.254.405.383.608a4.09,4.09,0,0,1,.27,1.442,4.079,4.079,0,0,0-.27-1.442h3.52a9.624,9.624,0,0,0,0,2.88c-1.174,0-2.35,0-3.52,0a3.644,3.644,0,0,1-2.454,2,3.937,3.937,0,0,1-.823.1A2.251,2.251,0,0,1,2.727,27.565ZM22.691,6.791l.856.221a1.918,1.918,0,0,0,.6.092,1.919,1.919,0,0,1-.6-.092l-.856-.221a3.54,3.54,0,0,1-1.663-4.908A3.263,3.263,0,0,1,23.433.119a3.479,3.479,0,0,1,4.1,2.445c.479,1.705-.214,3.209-1.961,4.251q.009,1.716.021,3.431l-1.174.02h-.192l-.289,0-1.255.075Z" transform="translate(0.025 0)" fill="#6094ea" stroke="rgba(0,0,0,0)" stroke-miterlimit="10" stroke-width="1"/>
      <path id="Path_855" data-name="Path 855" d="M35.7,15.289h.289a.178.178,0,0,1-.289,0" transform="translate(-11.734 -5.025)" fill="#c5dee4"/>
      <g id="Union_19" data-name="Union 19" transform="translate(12.897 18.215)" fill="#6094ea" stroke-miterlimit="10">
        <path d="M9.346,29.448A18.572,18.572,0,0,1,.024,25.694c0-2.294-.054-4.59,0-6.882A5.829,5.829,0,0,1,5.16,13.552a23.769,23.769,0,0,1,2.965-.093c.392,0,.783.011,1.175.006,1.847-.014,3.7,0,5.545.007.362-.027.722-.043,1.079-.043a6.63,6.63,0,0,1,4.7,1.606,5.252,5.252,0,0,1,1.881,3.9c.028,1.446.034,2.892.048,4.336A24.105,24.105,0,0,0,22.5,25.7a12.168,12.168,0,0,1-2.425,1.536,17.241,17.241,0,0,1-6.9,2.214q-.958.091-1.919.091T9.346,29.448Zm1.025-16.539a5.6,5.6,0,0,1-4.163-3.8c-.836-2.134-1.094-4.267.114-6.352a5.3,5.3,0,0,1,4.05-2.72,5.933,5.933,0,0,1,4.182.932,5.794,5.794,0,0,1,2.418,5.482,8.412,8.412,0,0,1-1.646,4.464,5.491,5.491,0,0,1-3.954,2.142,1.056,1.056,0,0,1-.123.007A7.621,7.621,0,0,1,10.371,12.909Z" stroke="none"/>
        <path d="M 11.24979019165039 28.53681564331055 C 11.85412120819092 28.53681564331055 12.46362209320068 28.50823211669922 13.06157493591309 28.45187377929688 C 15.608154296875 28.14363098144531 17.7327995300293 27.46379280090332 19.55694961547852 26.37360572814941 L 19.62401962280273 26.33352470397949 L 19.69651031494141 26.30434608459473 C 20.30270004272461 26.06031608581543 20.85440063476562 25.65558433532715 21.43849945068359 25.22709465026855 C 21.46041297912598 25.21101760864258 21.48243141174316 25.19486618041992 21.50454711914062 25.17865180969238 C 21.50370216369629 25.04623794555664 21.50103569030762 24.91106605529785 21.49830055236816 24.77242469787598 C 21.48835754394531 24.26856231689453 21.47809028625488 23.74834442138672 21.5516357421875 23.20135688781738 C 21.54798126220703 22.8223705291748 21.54490661621094 22.44325637817383 21.54183006286621 22.06405448913574 C 21.53354072570801 21.04274559020996 21.52498054504395 19.98666572570801 21.50457954406738 18.95046424865723 C 21.48106956481934 17.74047470092773 20.97315979003906 16.70211601257324 19.9520206451416 15.77626514434814 C 18.92399024963379 14.8447151184082 17.68120956420898 14.42929553985596 15.9224100112915 14.42929553985596 C 15.61215019226074 14.42929553985596 15.28330039978027 14.44237518310547 14.91707038879395 14.46929550170898 L 14.87956047058105 14.47205543518066 L 14.84195041656494 14.47198486328125 C 14.26463985443115 14.47093486785889 13.68751049041748 14.46849536895752 13.110520362854 14.46606540679932 C 12.36081027984619 14.46289539337158 11.58559036254883 14.45962524414062 10.82437992095947 14.45962524414062 C 10.27225017547607 14.45962524414062 9.776811599731445 14.46131801605225 9.30989933013916 14.46481132507324 C 8.993155479431152 14.46901798248291 8.673139572143555 14.46540832519531 8.366129875183105 14.46191501617432 L 8.097229957580566 14.45902538299561 C 7.823290348052979 14.45621490478516 7.540019989013672 14.45331478118896 7.263890266418457 14.45331478118896 C 6.675920009613037 14.45331478118896 5.979690074920654 14.46423530578613 5.274050235748291 14.54522514343262 C 4.201410293579102 14.66841506958008 3.123030185699463 15.20998477935791 2.315410137176514 16.03105545043945 C 1.507450222969055 16.85247611999512 1.049390196800232 17.84876441955566 1.025620222091675 18.83650588989258 C 0.9875002503395081 20.41260528564453 1.000100255012512 22.02493476867676 1.012280225753784 23.58418464660645 C 1.01639187335968 24.1099796295166 1.020607709884644 24.64941215515137 1.022893071174622 25.18754768371582 C 3.581912517547607 27.0224781036377 6.413197040557861 28.12050247192383 9.446396827697754 28.45310592651367 C 10.04454803466797 28.50865364074707 10.65122509002686 28.53681564331055 11.24979019165039 28.53681564331055 M 11.25024223327637 12.06000518798828 C 11.25275802612305 12.06000328063965 11.25549030303955 12.05996990203857 11.25977993011475 12.05956554412842 C 12.68576049804688 11.89869499206543 13.75549983978271 11.32524490356445 14.53040981292725 10.3061056137085 C 15.35894012451172 9.217485427856445 15.84537982940674 7.890655040740967 15.97630023956299 6.361775398254395 C 16.14554977416992 4.401265144348145 15.48596000671387 2.899325132369995 13.96005058288574 1.770285129547119 C 13.23966026306152 1.237565159797668 12.40318012237549 0.9999951720237732 11.24781036376953 0.9999951720237732 C 11.01147365570068 0.9999951720237732 10.75874423980713 1.009682536125183 10.47619247436523 1.029584050178528 C 9.014357566833496 1.233896493911743 7.938326835632324 1.962485790252686 7.187710285186768 3.255625247955322 C 6.281230449676514 4.81988525390625 6.266440391540527 6.511645317077637 7.140030384063721 8.741795539855957 C 7.850188255310059 10.55902671813965 8.93116283416748 11.57085704803467 10.53979110717773 11.92285919189453 C 10.6974925994873 11.94438934326172 10.83703327178955 11.97723579406738 10.96160984039307 12.00656509399414 C 11.07302665710449 12.03280162811279 11.1882266998291 12.05991840362549 11.25024223327637 12.06000518798828 M 11.24979019165039 29.53681564331055 C 10.61534023284912 29.53681564331055 9.980140686035156 29.50723457336426 9.345680236816406 29.44805526733398 C 5.885790348052979 29.07016563415527 2.791430234909058 27.78404426574707 0.02441022358834743 25.69420433044434 C 0.02066022343933582 23.39986610412598 -0.02951977774500847 21.10441589355469 0.02591022290289402 18.81232452392578 C 0.08808021992444992 16.22923469543457 2.456600189208984 13.8622350692749 5.159950256347656 13.55175495147705 C 6.148709774017334 13.43827438354492 7.136709213256836 13.44913482666016 8.124720573425293 13.45925521850586 C 8.516481399536133 13.4629955291748 8.90749454498291 13.47011756896973 9.299240112304688 13.46486473083496 C 11.14642143249512 13.45101547241211 12.99434947967529 13.46861457824707 14.84377002716064 13.47198486328125 C 15.20557022094727 13.44539546966553 15.5658597946167 13.42929553985596 15.9224100112915 13.42929553985596 C 17.63626098632812 13.42929553985596 19.25048065185547 13.7910852432251 20.62350082397461 15.03524494171143 C 21.77555084228516 16.07979583740234 22.47368049621582 17.35018539428711 22.50439071655273 18.93104553222656 C 22.53285026550293 20.3767147064209 22.53808975219727 21.82274436950684 22.55232048034668 23.26691436767578 C 22.43173027038574 24.07401466369629 22.53434944152832 24.8867244720459 22.49539947509766 25.69570541381836 C 21.71338081359863 26.25074577331543 20.97331047058105 26.86833572387695 20.06995010375977 27.23199462890625 C 17.94112968444824 28.5042552947998 15.61155033111572 29.15180587768555 13.16888046264648 29.44618606567383 C 12.52993011474609 29.50685501098633 11.88949012756348 29.53681564331055 11.24979019165039 29.53681564331055 Z M 11.2490406036377 13.06000518798828 C 10.94642066955566 13.05963516235352 10.66701984405518 12.94390487670898 10.37115001678467 12.90944480895996 C 8.238579750061035 12.45889472961426 6.971170425415039 11.05705547332764 6.208630084991455 9.105785369873047 C 5.372680187225342 6.971745014190674 5.114260196685791 4.839205265045166 6.322490215301514 2.75423526763916 C 7.223600387573242 1.201825141906738 8.575650215148926 0.2760051786899567 10.37264060974121 0.03443517535924911 C 11.85951328277588 -0.07342472672462463 13.28798007965088 0.02956496737897396 14.55463027954102 0.9662551879882812 C 16.41230010986328 2.340755224227905 17.16584968566895 4.209255218505859 16.97258949279785 6.447785377502441 C 16.83402061462402 8.066104888916016 16.33065032958984 9.591915130615234 15.3261604309082 10.91173553466797 C 14.32917022705078 12.22294521331787 12.9786205291748 12.871994972229 11.3718900680542 13.05326557159424 C 11.32993984222412 13.05813503265381 11.28948974609375 13.06000518798828 11.2490406036377 13.06000518798828 Z" stroke="none" fill="rgba(0,0,0,0)"/>
      </g>
      <g id="Union_20" data-name="Union 20" transform="translate(12.898 18.215)" fill="none" stroke-miterlimit="10">
        <path d="M9.346,29.448A18.572,18.572,0,0,1,.024,25.694c0-2.294-.054-4.59,0-6.882A5.829,5.829,0,0,1,5.16,13.552a23.769,23.769,0,0,1,2.965-.093c.392,0,.783.011,1.175.006,1.847-.014,3.7,0,5.545.007.362-.027.722-.043,1.079-.043a6.63,6.63,0,0,1,4.7,1.606,5.252,5.252,0,0,1,1.881,3.9c.028,1.446.034,2.892.048,4.336A24.105,24.105,0,0,0,22.5,25.7a12.168,12.168,0,0,1-2.425,1.536,17.241,17.241,0,0,1-6.9,2.214q-.958.091-1.919.091T9.346,29.448Zm1.025-16.539a5.6,5.6,0,0,1-4.163-3.8c-.836-2.134-1.094-4.267.114-6.352a5.3,5.3,0,0,1,4.05-2.72,5.933,5.933,0,0,1,4.182.932,5.794,5.794,0,0,1,2.418,5.482,8.412,8.412,0,0,1-1.646,4.464,5.491,5.491,0,0,1-3.954,2.142,1.056,1.056,0,0,1-.123.007A7.621,7.621,0,0,1,10.371,12.909Z" stroke="none"/>
        <path d="M 11.24979019165039 28.53681564331055 C 11.85412120819092 28.53681564331055 12.46362209320068 28.50823211669922 13.06157493591309 28.45187377929688 C 15.608154296875 28.14363098144531 17.7327995300293 27.46379280090332 19.55694961547852 26.37360572814941 L 19.62401962280273 26.33352470397949 L 19.69651031494141 26.30434608459473 C 20.30270004272461 26.06031608581543 20.85440063476562 25.65558433532715 21.43849945068359 25.22709465026855 C 21.46041297912598 25.21101760864258 21.48243141174316 25.19486618041992 21.50454711914062 25.17865180969238 C 21.50370216369629 25.04623794555664 21.50103569030762 24.91106605529785 21.49830055236816 24.77242469787598 C 21.48835754394531 24.26856231689453 21.47809028625488 23.74834442138672 21.5516357421875 23.20135688781738 C 21.54798126220703 22.8223705291748 21.54490661621094 22.44325637817383 21.54183006286621 22.06405448913574 C 21.53354072570801 21.04274559020996 21.52498054504395 19.98666572570801 21.50457954406738 18.95046424865723 C 21.48106956481934 17.74047470092773 20.97315979003906 16.70211601257324 19.9520206451416 15.77626514434814 C 18.92399024963379 14.8447151184082 17.68120956420898 14.42929553985596 15.9224100112915 14.42929553985596 C 15.61215019226074 14.42929553985596 15.28330039978027 14.44237518310547 14.91707038879395 14.46929550170898 L 14.87956047058105 14.47205543518066 L 14.84195041656494 14.47198486328125 C 14.26463985443115 14.47093486785889 13.68751049041748 14.46849536895752 13.110520362854 14.46606540679932 C 12.36081027984619 14.46289539337158 11.58559036254883 14.45962524414062 10.82437992095947 14.45962524414062 C 10.27225017547607 14.45962524414062 9.776811599731445 14.46131801605225 9.30989933013916 14.46481132507324 C 8.993155479431152 14.46901798248291 8.673139572143555 14.46540832519531 8.366129875183105 14.46191501617432 L 8.097229957580566 14.45902538299561 C 7.823290348052979 14.45621490478516 7.540019989013672 14.45331478118896 7.263890266418457 14.45331478118896 C 6.675920009613037 14.45331478118896 5.979690074920654 14.46423530578613 5.274050235748291 14.54522514343262 C 4.201410293579102 14.66841506958008 3.123030185699463 15.20998477935791 2.315410137176514 16.03105545043945 C 1.507450222969055 16.85247611999512 1.049390196800232 17.84876441955566 1.025620222091675 18.83650588989258 C 0.9875002503395081 20.41260528564453 1.000100255012512 22.02493476867676 1.012280225753784 23.58418464660645 C 1.01639187335968 24.1099796295166 1.020607709884644 24.64941215515137 1.022893071174622 25.18754768371582 C 3.581912517547607 27.0224781036377 6.413197040557861 28.12050247192383 9.446396827697754 28.45310592651367 C 10.04454803466797 28.50865364074707 10.65122509002686 28.53681564331055 11.24979019165039 28.53681564331055 M 11.25024223327637 12.06000518798828 C 11.25275802612305 12.06000328063965 11.25549030303955 12.05996990203857 11.25977993011475 12.05956554412842 C 12.68576049804688 11.89869499206543 13.75549983978271 11.32524490356445 14.53040981292725 10.3061056137085 C 15.35894012451172 9.217485427856445 15.84537982940674 7.890655040740967 15.97630023956299 6.361775398254395 C 16.14554977416992 4.401265144348145 15.48596000671387 2.899325132369995 13.96005058288574 1.770285129547119 C 13.23966026306152 1.237565159797668 12.40318012237549 0.9999951720237732 11.24781036376953 0.9999951720237732 C 11.01147365570068 0.9999951720237732 10.75874423980713 1.009682536125183 10.47619247436523 1.029584050178528 C 9.014357566833496 1.233896493911743 7.938326835632324 1.962485790252686 7.187710285186768 3.255625247955322 C 6.281230449676514 4.81988525390625 6.266440391540527 6.511645317077637 7.140030384063721 8.741795539855957 C 7.850188255310059 10.55902671813965 8.93116283416748 11.57085704803467 10.53979110717773 11.92285919189453 C 10.6974925994873 11.94438934326172 10.83703327178955 11.97723579406738 10.96160984039307 12.00656509399414 C 11.07302665710449 12.03280162811279 11.1882266998291 12.05991840362549 11.25024223327637 12.06000518798828 M 11.24979019165039 29.53681564331055 C 10.61534023284912 29.53681564331055 9.980140686035156 29.50723457336426 9.345680236816406 29.44805526733398 C 5.885790348052979 29.07016563415527 2.791430234909058 27.78404426574707 0.02441022358834743 25.69420433044434 C 0.02066022343933582 23.39986610412598 -0.02951977774500847 21.10441589355469 0.02591022290289402 18.81232452392578 C 0.08808021992444992 16.22923469543457 2.456600189208984 13.8622350692749 5.159950256347656 13.55175495147705 C 6.148709774017334 13.43827438354492 7.136709213256836 13.44913482666016 8.124720573425293 13.45925521850586 C 8.516481399536133 13.4629955291748 8.90749454498291 13.47011756896973 9.299240112304688 13.46486473083496 C 11.14642143249512 13.45101547241211 12.99434947967529 13.46861457824707 14.84377002716064 13.47198486328125 C 15.20557022094727 13.44539546966553 15.5658597946167 13.42929553985596 15.9224100112915 13.42929553985596 C 17.63626098632812 13.42929553985596 19.25048065185547 13.7910852432251 20.62350082397461 15.03524494171143 C 21.77555084228516 16.07979583740234 22.47368049621582 17.35018539428711 22.50439071655273 18.93104553222656 C 22.53285026550293 20.3767147064209 22.53808975219727 21.82274436950684 22.55232048034668 23.26691436767578 C 22.43173027038574 24.07401466369629 22.53434944152832 24.8867244720459 22.49539947509766 25.69570541381836 C 21.71338081359863 26.25074577331543 20.97331047058105 26.86833572387695 20.06995010375977 27.23199462890625 C 17.94112968444824 28.5042552947998 15.61155033111572 29.15180587768555 13.16888046264648 29.44618606567383 C 12.52993011474609 29.50685501098633 11.88949012756348 29.53681564331055 11.24979019165039 29.53681564331055 Z M 11.2490406036377 13.06000518798828 C 10.94642066955566 13.05963516235352 10.66701984405518 12.94390487670898 10.37115001678467 12.90944480895996 C 8.238579750061035 12.45889472961426 6.971170425415039 11.05705547332764 6.208630084991455 9.105785369873047 C 5.372680187225342 6.971745014190674 5.114260196685791 4.839205265045166 6.322490215301514 2.75423526763916 C 7.223600387573242 1.201825141906738 8.575650215148926 0.2760051786899567 10.37264060974121 0.03443517535924911 C 11.85951328277588 -0.07342472672462463 13.28798007965088 0.02956496737897396 14.55463027954102 0.9662551879882812 C 16.41230010986328 2.340755224227905 17.16584968566895 4.209255218505859 16.97258949279785 6.447785377502441 C 16.83402061462402 8.066104888916016 16.33065032958984 9.591915130615234 15.3261604309082 10.91173553466797 C 14.32917022705078 12.22294521331787 12.9786205291748 12.871994972229 11.3718900680542 13.05326557159424 C 11.32993984222412 13.05813503265381 11.28948974609375 13.06000518798828 11.2490406036377 13.06000518798828 Z" stroke="none" fill="rgba(255,255,255,0.4)"/>
      </g>
    </g>
  </g>
</svg>
